<svg width="425" height="295" viewBox="0 0 425 295" fill="none" xmlns="http://www.w3.org/2000/svg">
<rect x="11.7068" y="0.91449" width="413" height="277" rx="24" transform="rotate(2.34634 11.7068 0.91449)" fill="white"/>
<rect x="21.289" y="11.3155" width="393" height="257" rx="18" transform="rotate(2.34634 21.289 11.3155)" fill="white"/>
<path d="M12.2003 233.129L404.871 249.219L404.175 266.205C403.768 276.137 395.386 283.86 385.453 283.453L28.7523 268.837C18.8195 268.43 11.0974 260.048 11.5044 250.115L12.2003 233.129Z" fill="#FF7698"/>
<path d="M20.5521 29.3004C20.9591 19.3676 29.3411 11.6454 39.2739 12.0524L395.975 26.668C405.907 27.075 413.63 35.457 413.223 45.3898L409.538 135.314L16.8675 119.225L20.5521 29.3004Z" fill="#FF7698"/>
<rect x="20.3308" y="10.2754" width="395" height="259" rx="19" transform="rotate(2.34634 20.3308 10.2754)" stroke="#3D3DFF" stroke-width="2"/>
<path d="M110.714 85.0383L121.001 85.4598L121.866 64.3455L142.441 65.1886L141.576 86.3029L151.863 86.7244L153.918 36.5824L143.63 36.1609L142.829 55.7285L122.254 54.8855L123.056 35.3179L112.768 34.8964L110.714 85.0383Z" fill="white"/>
<path d="M160.945 87.0965L194.469 88.4701L194.846 79.2618L171.61 78.3097L172.101 66.3318L194.006 67.2294L194.382 58.0571L172.476 57.1595L172.91 46.5844L196.146 47.5365L196.524 38.3282L163 36.9546L160.945 87.0965Z" fill="white"/>
<path d="M202.324 88.792L233.582 90.0728L233.96 80.8645L212.989 80.0052L214.666 39.0716L204.379 38.6501L202.324 88.792Z" fill="white"/>
<path d="M238.786 90.286L270.044 91.5667L270.421 82.3585L249.451 81.4992L251.128 40.5656L240.841 40.1441L238.786 90.286Z" fill="white"/>
<path d="M296.375 93.8707C310.763 94.4602 321.155 84.4012 321.802 68.6105C322.452 52.7478 313.061 41.8782 298.53 41.2828C284.142 40.6933 273.818 50.8271 273.171 66.6179C272.527 82.3367 281.951 93.2797 296.375 93.8707ZM283.494 67.0408C283.916 56.7535 289.601 50.7892 298.126 51.1385C306.687 51.4893 311.823 58.0411 311.407 68.1845C310.994 78.2561 305.339 84.3657 296.779 84.0149C288.254 83.6656 283.076 77.2563 283.494 67.0408Z" fill="white"/>
<path d="M151.604 100.522C151.95 100.536 152.277 100.624 152.583 100.787C152.896 100.949 153.146 101.249 153.332 101.685C153.519 102.122 153.595 102.751 153.561 103.573L153.234 111.563L151.644 111.498L151.96 103.783C151.988 103.11 151.967 102.623 151.897 102.321C151.828 102.018 151.6 101.859 151.213 101.843C150.893 101.83 150.57 101.919 150.242 102.11C149.922 102.294 149.602 102.608 149.285 103.051L148.943 111.387L147.343 111.321L147.659 103.607C147.687 102.934 147.666 102.447 147.597 102.144C147.527 101.842 147.299 101.683 146.912 101.667C146.579 101.653 146.252 101.742 145.931 101.933C145.617 102.118 145.302 102.431 144.984 102.874L144.643 111.211L143.063 111.146L143.503 100.415L144.848 100.47L144.899 101.717C145.208 101.315 145.548 100.982 145.92 100.718C146.298 100.448 146.756 100.323 147.293 100.345C147.7 100.362 148.08 100.476 148.432 100.688C148.785 100.893 149.034 101.278 149.181 101.842C149.491 101.432 149.834 101.106 150.212 100.863C150.589 100.613 151.053 100.499 151.604 100.522Z" fill="white"/>
<path d="M165.671 101.323L161.457 111.971C161.176 112.688 160.83 113.341 160.418 113.929C160.012 114.519 159.493 114.997 158.858 115.366C158.23 115.742 157.442 115.958 156.494 116.015L156.285 114.638C157.03 114.546 157.622 114.383 158.061 114.149C158.499 113.916 158.849 113.607 159.109 113.223C159.377 112.839 159.617 112.376 159.83 111.833L159.259 111.81L155.948 100.925L157.783 101L160.474 110.553L163.898 101.25L165.671 101.323Z" fill="white"/>
<path d="M180.747 112.69L181.186 101.959L182.644 102.018L182.715 103.512C183.173 102.979 183.733 102.58 184.398 102.315C185.069 102.043 185.714 101.92 186.332 101.945C187.385 101.988 188.138 102.298 188.591 102.875C189.05 103.452 189.26 104.236 189.219 105.228L188.9 113.024L187.188 112.954L187.455 106.421C187.485 105.688 187.469 105.095 187.406 104.643C187.343 104.185 187.186 103.848 186.937 103.634C186.687 103.413 186.291 103.291 185.747 103.269C185.326 103.251 184.925 103.327 184.543 103.495C184.169 103.663 183.83 103.881 183.526 104.147C183.23 104.407 182.981 104.673 182.779 104.944L182.459 112.76L180.747 112.69Z" fill="white"/>
<path d="M200.749 111.162C200.731 111.59 200.79 111.905 200.924 112.108C201.059 112.311 201.274 112.466 201.569 112.574L201.102 113.759C200.642 113.679 200.244 113.516 199.907 113.271C199.57 113.019 199.333 112.652 199.196 112.17C198.789 112.65 198.291 113.007 197.703 113.242C197.115 113.47 196.471 113.569 195.771 113.541C194.698 113.497 193.865 113.16 193.271 112.53C192.678 111.9 192.401 111.085 192.442 110.086C192.488 108.979 192.954 108.147 193.841 107.592C194.728 107.036 195.987 106.791 197.617 106.858L199.197 106.923L199.234 106.026C199.266 105.252 199.06 104.695 198.618 104.357C198.183 104.013 197.565 103.824 196.763 103.791C196.41 103.777 195.993 103.804 195.514 103.873C195.035 103.935 194.513 104.053 193.948 104.227L193.553 102.915C194.222 102.697 194.847 102.549 195.429 102.471C196.01 102.393 196.563 102.364 197.086 102.386C198.425 102.44 199.414 102.794 200.054 103.446C200.701 104.092 201.003 104.949 200.959 106.015L200.749 111.162ZM196.263 112.254C196.793 112.276 197.305 112.164 197.798 111.919C198.291 111.667 198.704 111.309 199.036 110.847L199.149 108.085L197.6 108.021C196.418 107.973 195.574 108.142 195.068 108.53C194.569 108.918 194.306 109.455 194.277 110.141C194.25 110.807 194.399 111.32 194.725 111.681C195.057 112.035 195.57 112.226 196.263 112.254Z" fill="white"/>
<path d="M212.712 103.026C213.058 103.04 213.384 103.128 213.691 103.291C214.004 103.453 214.254 103.753 214.44 104.189C214.626 104.625 214.703 105.255 214.669 106.077L214.342 114.067L212.752 114.002L213.068 106.287C213.095 105.614 213.075 105.127 213.005 104.824C212.936 104.522 212.708 104.363 212.321 104.347C212.001 104.334 211.678 104.423 211.35 104.614C211.029 104.798 210.71 105.111 210.393 105.554L210.051 113.891L208.451 113.825L208.767 106.111C208.795 105.438 208.774 104.95 208.705 104.648C208.635 104.346 208.407 104.187 208.02 104.171C207.687 104.157 207.36 104.246 207.039 104.437C206.725 104.622 206.41 104.935 206.092 105.378L205.75 113.715L204.171 113.65L204.61 102.919L205.956 102.974L206.007 104.221C206.316 103.819 206.656 103.486 207.028 103.222C207.406 102.951 207.864 102.827 208.401 102.849C208.808 102.866 209.188 102.98 209.54 103.192C209.892 103.397 210.142 103.782 210.289 104.346C210.599 103.936 210.942 103.61 211.319 103.367C211.697 103.117 212.161 103.003 212.712 103.026Z" fill="white"/>
<path d="M218.952 109.488C218.952 110.319 219.084 111.005 219.347 111.546C219.611 112.081 219.972 112.484 220.431 112.754C220.89 113.018 221.394 113.161 221.944 113.184C222.495 113.206 222.994 113.145 223.442 113C223.898 112.856 224.366 112.633 224.848 112.333L225.607 113.497C225.088 113.871 224.501 114.156 223.846 114.354C223.198 114.552 222.538 114.637 221.866 114.61C220.826 114.567 219.949 114.296 219.235 113.798C218.52 113.299 217.986 112.624 217.633 111.772C217.287 110.914 217.137 109.931 217.182 108.824C217.227 107.737 217.46 106.78 217.882 105.953C218.304 105.127 218.874 104.486 219.594 104.033C220.313 103.579 221.149 103.372 222.1 103.411C223.004 103.448 223.773 103.693 224.407 104.148C225.042 104.596 225.517 105.221 225.831 106.024C226.152 106.819 226.291 107.761 226.246 108.848C226.239 109.031 226.228 109.205 226.215 109.367C226.202 109.523 226.186 109.662 226.167 109.784L218.952 109.488ZM222.063 104.818C221.268 104.785 220.59 105.04 220.031 105.582C219.477 106.124 219.139 106.985 219.016 108.164L224.611 108.393C224.638 107.244 224.422 106.371 223.963 105.774C223.505 105.17 222.871 104.851 222.063 104.818Z" fill="white"/>
<path d="M247.726 104.685L247.342 114.061L250.369 114.185L250.313 115.541L242.262 115.211L242.318 113.855L245.63 113.991L245.959 105.97L242.748 105.839L242.804 104.483L247.726 104.685ZM246.566 99.6049C246.947 99.6205 247.245 99.7484 247.459 99.9886C247.681 100.229 247.785 100.516 247.771 100.849C247.757 101.195 247.629 101.483 247.389 101.711C247.155 101.933 246.848 102.036 246.467 102.02C246.107 102.005 245.817 101.878 245.595 101.637C245.374 101.39 245.27 101.093 245.284 100.747C245.298 100.414 245.425 100.137 245.666 99.9151C245.906 99.6936 246.206 99.5902 246.566 99.6049Z" fill="white"/>
<path d="M257.773 114.662C258.595 114.696 259.25 114.569 259.738 114.283C260.234 113.99 260.492 113.586 260.513 113.07C260.526 112.743 260.477 112.459 260.364 112.216C260.258 111.974 260.026 111.75 259.667 111.544C259.308 111.339 258.752 111.126 257.998 110.904C257.265 110.691 256.629 110.454 256.088 110.193C255.554 109.926 255.143 109.593 254.853 109.193C254.57 108.794 254.441 108.285 254.466 107.667C254.491 107.062 254.682 106.549 255.04 106.128C255.404 105.701 255.897 105.384 256.518 105.178C257.139 104.965 257.854 104.876 258.663 104.909C259.526 104.944 260.272 105.09 260.901 105.347C261.537 105.598 262.073 105.899 262.507 106.25L261.706 107.381C261.309 107.086 260.87 106.84 260.388 106.643C259.907 106.44 259.319 106.324 258.626 106.296C257.784 106.261 257.18 106.369 256.816 106.62C256.452 106.863 256.262 107.192 256.245 107.607C256.232 107.919 256.306 108.184 256.468 108.402C256.636 108.613 256.924 108.812 257.331 108.999C257.739 109.179 258.302 109.382 259.021 109.609C259.714 109.821 260.313 110.067 260.818 110.346C261.331 110.626 261.725 110.982 262 111.415C262.275 111.849 262.398 112.398 262.371 113.064C262.34 113.825 262.097 114.434 261.643 114.892C261.189 115.343 260.611 115.663 259.909 115.852C259.214 116.035 258.483 116.11 257.715 116.079C256.743 116.039 255.92 115.866 255.245 115.559C254.578 115.246 254.021 114.879 253.575 114.459L254.6 113.368C255.007 113.732 255.478 114.034 256.013 114.274C256.554 114.507 257.141 114.636 257.773 114.662Z" fill="white"/>
<path d="M195.84 176.058L217.403 174.301C218.218 174.231 219.036 174.383 219.771 174.741C220.552 175.121 221.212 175.709 221.681 176.44C222.149 177.171 222.407 178.016 222.427 178.884C222.467 179.382 222.445 179.883 222.363 180.375C222.088 182.342 221.751 184.336 221.365 186.355C219.139 197.081 215.305 206.091 209.863 213.386C204.42 220.681 198.552 224.544 192.258 224.976C191.388 225.058 190.514 225.079 189.641 225.038C183.697 224.535 178.515 221.143 174.096 214.862C169.237 207.831 166.382 198.799 165.53 187.766C165.038 181.122 165.387 174.443 166.569 167.886C168.483 156.969 172.069 147.783 177.326 140.327C182.82 132.428 189.011 128.205 195.898 127.66C198.74 127.427 201.597 127.892 204.22 129.012C210.012 131.504 214.639 136.77 218.099 144.812C218.497 145.502 218.736 146.272 218.799 147.066C218.861 147.921 218.707 148.779 218.349 149.559C217.938 150.56 217.175 151.377 216.205 151.857C215.234 152.338 214.122 152.448 213.076 152.167C212.369 151.994 211.714 151.652 211.169 151.17C210.623 150.688 210.203 150.08 209.944 149.4L209.674 148.985C208.881 147.126 207.864 145.37 206.645 143.758C203.493 139.602 199.874 137.715 195.823 138.011C193.21 138.313 190.774 139.481 188.903 141.329C184.651 145.137 181.191 151.449 178.523 160.266C175.87 168.776 174.821 177.705 175.43 186.599C176.064 194.749 177.825 201.445 180.713 206.687C183.93 212.484 187.912 215.198 192.66 214.828C195.863 214.544 199.17 212.033 202.581 207.293C207.126 200.546 210.317 192.98 211.976 185.017C202.066 185.783 196.9 186.118 196.475 186.02C193.068 185.705 191.215 183.987 190.892 180.868C190.918 180.285 191.03 179.71 191.223 179.16C191.583 178.233 192.219 177.438 193.044 176.884C193.87 176.329 194.846 176.041 195.84 176.058Z" fill="#333333"/>
<path d="M250.317 218.523C240.964 218.35 233.911 212.814 229.158 201.917C225.653 193.728 223.756 183.614 223.468 171.575C223.453 170.955 223.434 170.161 223.535 169.191C223.791 161.505 225.134 153.894 227.523 146.584C231.262 135.475 236.827 129.836 244.219 129.667C244.603 129.658 245.013 129.648 245.459 129.638C252.184 129.915 255.63 133.734 255.798 141.093C255.989 149.105 252.755 158.1 246.094 168.08C242.362 173.843 237.847 179.059 232.678 183.578C233.666 189.221 235.259 194.741 237.428 200.043C240.543 206.794 245.007 210.1 250.819 209.961C251.235 209.95 251.649 209.903 252.057 209.82C253.953 209.208 255.712 208.235 257.237 206.953C259.409 205.387 261.115 204.589 262.355 204.56C262.921 204.554 263.476 204.722 263.942 205.043C264.478 205.364 264.922 205.817 265.231 206.36C265.539 206.903 265.702 207.516 265.704 208.14C265.678 210.16 264.293 212.261 261.549 214.445C258.342 216.978 254.402 218.408 250.317 218.523ZM244.429 138.448C243.273 138.506 242.143 138.81 241.115 139.342C240.087 139.875 239.186 140.621 238.472 141.532C234.167 146.599 231.994 157.1 231.954 173.035C234.425 170.366 236.688 167.511 238.724 164.496C244.946 155.553 247.984 148.035 247.838 141.941C247.817 141.563 247.732 141.192 247.589 140.842C247.402 140.15 246.99 139.539 246.418 139.105C245.846 138.672 245.147 138.441 244.429 138.448Z" fill="#333333"/>
<path d="M266.771 171.804C266.797 172.92 266.657 175.356 266.362 179.086C265.426 190.12 264.986 196.972 265.042 199.643C265.08 201.358 265.497 203.043 266.264 204.578C267.411 206.875 268.894 208.002 270.713 207.958C271.13 207.95 271.545 207.898 271.951 207.805C273.714 207.149 275.346 206.186 276.772 204.959C278.831 203.359 280.499 202.549 281.777 202.519C282.366 202.516 282.94 202.703 283.415 203.05C283.943 203.383 284.376 203.847 284.671 204.397C284.967 204.946 285.116 205.563 285.103 206.187C284.989 208.163 283.514 210.295 280.652 212.573C277.465 215.021 273.595 216.415 269.579 216.56C268.049 216.639 266.52 216.392 265.093 215.835C263.666 215.279 262.373 214.426 261.299 213.334C257.949 209.914 256.188 204.409 256.014 196.819C256.132 191.711 256.532 186.614 257.213 181.551C257.599 178.005 257.86 175.405 258.018 173.739L258.105 172.682C258.632 168.797 260.186 166.824 262.741 166.763C263.157 166.756 263.572 166.783 263.984 166.845C265.771 167.199 266.7 168.852 266.771 171.804ZM259.758 156.733C259.74 156.044 259.885 155.36 260.182 154.737C260.492 154.026 261.006 153.423 261.658 153.004C262.311 152.584 263.073 152.366 263.848 152.379C264.538 152.36 265.222 152.506 265.844 152.803C266.564 153.118 267.174 153.642 267.594 154.306C268.015 154.97 268.227 155.745 268.204 156.531C268.221 157.216 268.076 157.896 267.78 158.514C267.469 159.224 266.955 159.827 266.302 160.246C265.65 160.666 264.889 160.884 264.114 160.873C263.429 160.89 262.749 160.744 262.131 160.449C261.409 160.137 260.798 159.617 260.375 158.955C259.952 158.292 259.737 157.519 259.758 156.733Z" fill="#333333"/>
<path d="M279.187 153.439L279.758 153.425C281.934 153.447 283.895 153.438 285.639 153.396L287.789 135.388C287.887 134.368 288.058 133.356 288.3 132.36C288.933 129.78 290.317 128.465 292.45 128.414C292.866 128.404 293.283 128.436 293.693 128.508C295.489 128.887 296.422 130.552 296.493 133.504C296.515 134.438 295.895 141.006 294.632 153.206L300.746 153.059C301.694 153.015 302.637 153.21 303.49 153.626C304.433 154.153 305.133 155.028 305.441 156.064C305.748 157.1 305.639 158.215 305.136 159.171C304.696 159.912 304.062 160.518 303.301 160.924C302.541 161.329 301.684 161.519 300.823 161.471L293.63 161.643C291.16 184.974 289.959 198.05 290.027 200.869C290.063 202.585 290.481 204.27 291.249 205.804C292.397 208.109 293.859 209.241 295.637 209.198C296.088 209.183 296.537 209.114 296.972 208.993C298.6 208.339 300.095 207.395 301.385 206.207C302.658 204.928 304.309 204.092 306.093 203.823C306.637 203.814 307.177 203.92 307.677 204.133C308.312 204.38 308.859 204.813 309.246 205.374C309.634 205.936 309.844 206.6 309.85 207.282C309.774 209.307 308.335 211.426 305.522 213.665C302.36 216.157 298.475 217.557 294.449 217.653C292.609 217.703 290.784 217.312 289.126 216.511C287.468 215.711 286.026 214.526 284.92 213.054C282.242 209.386 280.829 204.947 280.895 200.405C280.868 199.289 282.09 186.408 284.561 161.761L278.633 161.903C275.965 161.727 274.596 160.361 274.527 157.807C274.502 157.15 274.604 156.494 274.828 155.876C275.535 154.295 276.967 153.492 279.187 153.439Z" fill="#333333"/>
<path d="M301.955 200.981C301.93 199.58 301.975 198.179 302.09 196.783C302.638 190.47 304.641 184.369 307.943 178.959C311.926 172.544 316.811 169.266 322.599 169.128C323.429 169.115 324.259 169.153 325.084 169.242C329.232 169.722 331.397 171.163 331.578 173.566C331.623 175.427 329.972 176.459 326.688 176.649L324.766 176.695C324.037 176.713 323.314 176.826 322.615 177.032C319.118 178.175 316.194 181.484 313.843 186.959C311.731 191.744 310.682 196.93 310.769 202.16C310.659 204.21 311.152 206.248 312.188 208.02C313.277 209.471 315.382 210.302 318.526 210.487C319.899 210.455 321.264 210.268 322.596 209.931C325.719 209.007 328.654 207.538 331.265 205.591C333.451 204.099 334.935 203.356 335.865 203.334C336.45 203.332 337.023 203.499 337.514 203.815C338.086 204.133 338.561 204.598 338.891 205.162C339.221 205.726 339.394 206.368 339.391 207.022C339.39 207.502 339.305 207.979 339.139 208.43C338.176 210.737 335.398 213.053 330.805 215.38C326.521 217.672 321.787 218.997 316.937 219.262C307.327 219.425 302.333 213.332 301.955 200.981Z" fill="#333333"/>
<path d="M341.344 210.363L345.114 134.016C345.328 129.494 346.76 127.101 349.385 126.853C349.97 126.801 350.56 126.833 351.137 126.947C352.649 127.37 353.517 128.925 353.731 131.638C354 134.941 353.535 149.194 352.335 174.398C354.79 169.143 358.664 166.283 363.956 165.817C365.863 165.671 367.766 166.152 369.374 167.189C370.533 167.853 371.508 168.795 372.209 169.932C372.91 171.068 373.316 172.362 373.389 173.695L373.653 176.94C373.935 180.917 374.171 184.076 374.363 186.392C375.002 194.393 375.584 199.012 376.11 200.249C376.216 200.519 376.334 200.802 376.478 201.096C377.872 204.057 379.54 205.461 381.48 205.307C381.897 205.27 382.311 205.198 382.716 205.091C384.452 204.313 386.043 203.242 387.418 201.926C389.421 200.224 391.053 199.316 392.316 199.203C392.807 199.176 393.297 199.275 393.738 199.492C394.371 199.791 394.906 200.264 395.282 200.854C395.658 201.444 395.861 202.128 395.866 202.828C395.886 202.981 395.89 203.134 395.877 203.287C395.748 205.164 394.308 207.234 391.532 209.472C388.596 211.962 384.98 213.514 381.153 213.927C379.82 214.038 378.479 213.97 377.165 213.725C370.588 212.352 366.84 205.964 365.922 194.561C365.841 193.595 365.755 192.083 365.664 190.025C365.605 187.544 365.51 185.648 365.379 184.336C364.92 178.613 364.193 175.752 363.176 175.764C362.96 175.788 362.748 175.844 362.547 175.928C360.413 176.963 357.961 181.527 355.193 189.618C353.096 195.45 351.643 201.493 350.859 207.641C350.782 208.242 350.755 208.849 350.779 209.455C350.793 210.788 350.502 212.106 349.928 213.31C349.63 214.139 349.108 214.869 348.42 215.42C347.732 215.971 346.906 216.321 346.032 216.431C345.552 216.462 345.07 216.402 344.613 216.254C342.703 215.629 341.632 213.905 341.399 211.081L341.344 210.363Z" fill="#333333"/>
<path d="M57.833 205.213C60.3958 205.029 62.3104 202.609 62.1093 199.807C61.9083 197.005 59.6678 194.883 57.105 195.067C54.5422 195.25 52.6276 197.671 52.8287 200.473C53.0297 203.275 55.2703 205.397 57.833 205.213Z" fill="#333333"/>
<path d="M54.4635 158.253C53.1867 158.422 52.0255 159.08 51.2252 160.089C50.425 161.098 50.0483 162.379 50.1748 163.66C50.2326 164.947 50.7882 166.161 51.7244 167.045C52.6605 167.93 53.9038 168.415 55.1916 168.4C56.4741 168.247 57.6437 167.592 58.445 166.579C59.2463 165.566 59.614 164.277 59.4679 162.994C59.4293 161.703 58.8813 160.479 57.9436 159.591C57.0059 158.703 55.7547 158.222 54.4635 158.253Z" fill="#333333"/>
<path d="M71.6494 192.008C71.0444 191.349 70.2025 190.957 69.3088 190.919C68.4151 190.88 67.5427 191.198 66.8833 191.803L67.5049 192.492L66.871 191.804C66.2296 192.392 65.8403 193.205 65.7844 194.074C65.7285 194.942 66.0103 195.799 66.5711 196.464L69.1343 201.853C69.1482 203.082 69.0658 204.311 68.888 205.527C68.6826 206.541 68.4137 207.54 68.0829 208.52C67.8231 209.337 67.8866 210.223 68.2605 210.995C68.6426 211.802 69.326 212.428 70.164 212.737C70.6097 212.899 71.0854 212.963 71.558 212.923C72.2085 212.877 72.8314 212.642 73.3503 212.247C73.874 211.86 74.2691 211.325 74.4839 210.71C75.0065 209.344 75.3924 207.928 75.636 206.486C75.8495 204.872 75.9365 203.244 75.896 201.616C75.7466 197.992 74.2292 194.558 71.6494 192.008Z" fill="#333333"/>
<path d="M153.714 193.731C153.56 193.32 153.411 192.97 153.275 192.643C153.199 192.461 153.131 192.275 153.074 192.086C153.282 191.219 153.554 190.368 153.886 189.54C154.677 187.255 154.994 184.833 154.818 182.421C154.755 181.617 154.495 180.842 154.06 180.164C153.625 179.485 153.029 178.925 152.325 178.532C151.617 178.146 150.825 177.938 150.018 177.927C149.815 177.923 149.612 177.937 149.412 177.97C149.817 177.701 150.187 177.382 150.513 177.021C151.186 176.29 151.608 175.362 151.716 174.374C151.824 173.386 151.613 172.389 151.114 171.53C150.654 170.628 150.381 169.643 150.308 168.634C150.236 167.624 150.366 166.61 150.692 165.652C152.535 161.701 152.199 159.959 150.929 156.655L150.76 156.207L150.322 155.119C150.231 154.901 150.125 154.635 150.108 154.562C150.314 153.694 150.586 152.843 150.92 152.016C151.626 149.997 151.957 147.865 151.899 145.727C151.862 144.372 151.306 143.084 150.347 142.127C149.387 141.17 148.096 140.619 146.742 140.587C145.849 140.569 144.966 140.773 144.172 141.182C141.199 142.738 136.822 145.005 134.578 146.149C131.678 147.756 128.269 148.183 125.062 147.342L106.754 142.673C105.058 140.705 102.628 138.391 99.8801 137.706C97.1319 137.02 86.8143 134.675 82.8561 134.288C82.3302 134.238 81.8166 134.188 81.2765 134.115C78.2924 133.782 74.5675 133.353 72.0062 136.832C70.9496 138.227 69.3999 140.378 68.3812 141.782C60.3226 142.204 52.4885 144.584 45.5578 148.718C42.3319 150.596 39.5915 153.204 37.5565 156.333C35.5215 159.462 34.2488 163.025 33.8405 166.735C33.7652 167.426 33.8409 168.125 34.0622 168.784C34.2639 169.454 34.6051 170.074 35.0633 170.603C35.5112 171.138 36.0631 171.577 36.6857 171.892C37.3028 172.205 37.9757 172.394 38.6658 172.446L39.2916 172.501C39.0864 172.693 38.8934 172.898 38.7137 173.115C38.1364 173.858 37.7702 174.744 37.6539 175.678C37.5291 176.615 37.6576 177.568 38.026 178.438C38.3905 179.301 38.9814 180.049 39.7362 180.604C42.7498 182.805 46.0923 184.518 49.6401 185.677L48.6026 186.298C45.2949 188.203 42.4956 190.878 40.4422 194.096C38.3887 197.314 37.1416 200.979 36.8068 204.782C36.7198 206.07 37.1464 207.341 37.9933 208.316C38.8411 209.291 40.0358 209.897 41.3234 210.005L41.9987 210.056C41.7561 210.256 41.5306 210.476 41.3245 210.714C40.7694 211.379 40.3979 212.177 40.2469 213.03C40.1074 213.88 40.1968 214.752 40.5058 215.556C40.8149 216.36 41.3326 217.068 42.0056 217.605C45.9002 220.746 54.7859 226.017 70.559 226.042C72.3498 226.038 74.2855 225.973 76.4032 225.846C79.8938 229.576 84.491 232.085 89.5164 233.002C91.5785 233.351 93.6727 233.472 95.7612 233.363L95.9592 233.349C97.2595 233.255 98.5414 232.988 99.7703 232.553C100.55 232.292 101.256 231.849 101.829 231.261C102.345 230.68 102.72 229.989 102.928 229.242C103.174 228.487 103.244 227.687 103.133 226.901C103.003 226.105 102.693 225.349 102.228 224.69L100.851 222.823L101.82 222.642C102.04 222.604 102.256 222.551 102.468 222.483C104.424 221.833 121.726 216.126 126.976 213.362C128.492 212.432 130.201 211.862 131.972 211.694C133.742 211.526 135.528 211.765 137.192 212.392C139.735 213.167 145.132 215.231 148.139 216.395C149.036 216.74 150.013 216.817 150.953 216.616C151.862 216.408 152.693 215.943 153.345 215.276C154 214.632 154.451 213.81 154.641 212.911C154.831 212.012 154.752 211.077 154.412 210.224C153.579 208.144 153.194 204.341 153.692 202.962C155.263 198.683 155.078 197.315 153.714 193.731ZM146.846 195.257L146.857 195.405C146.956 195.63 147.062 195.896 147.175 196.203C147.985 198.309 147.985 198.309 147.176 200.556C146.464 203.133 146.364 205.841 146.886 208.463C144.025 207.424 141.046 206.295 139.227 205.729C136.69 204.836 133.989 204.506 131.311 204.763C128.634 205.02 126.045 205.856 123.724 207.214C119.495 209.471 104.918 214.335 100.559 215.804L100.484 215.81C99.3919 216.013 97.1929 216.394 94.2532 216.854C93.6733 216.946 93.1258 217.182 92.6607 217.54C92.1916 217.906 91.8241 218.385 91.5934 218.933C91.3626 219.481 91.2764 220.079 91.3429 220.67C91.4096 221.259 91.6255 221.821 91.9701 222.304L94.9537 226.443C93.5179 226.491 92.0809 226.39 90.6659 226.141C86.6565 225.341 83.0474 223.179 80.4505 220.021C80.0949 219.611 79.6453 219.293 79.1402 219.095C78.6368 218.894 78.0956 218.806 77.5545 218.836C75.2281 219.003 72.8894 219.17 70.5603 219.126C60.011 219.099 53.2086 216.515 49.2356 214.188C50.2077 213.706 51.0275 212.963 51.6046 212.044C52.1817 211.125 52.4937 210.064 52.5061 208.979C52.3475 204.861 47.3752 203.688 44.0242 203.269C44.5522 200.954 45.5527 198.773 46.9632 196.864C48.3736 194.954 50.1635 193.356 52.2205 192.171C55.2525 190.321 58.5229 188.893 61.9411 187.928C62.7102 187.697 63.3774 187.211 63.8322 186.549C64.2776 185.894 64.4858 185.107 64.4224 184.317C64.359 183.528 64.0277 182.784 63.4834 182.208C62.9308 181.609 62.1857 181.222 61.3776 181.115C56.0807 180.671 50.9322 179.139 46.2536 176.616C47.2248 176.132 48.0438 175.39 48.6208 174.471C49.1977 173.551 49.5103 172.491 49.5241 171.406C49.3636 167.263 44.3428 166.106 41.0174 165.698C41.5344 163.376 42.5333 161.187 43.9495 159.275C45.3656 157.363 47.1675 155.77 49.2385 154.598C55.3381 150.967 62.2543 148.93 69.3487 148.677C70.1716 148.669 70.9802 148.461 71.7058 148.073C72.4238 147.695 73.0449 147.157 73.5208 146.5C74.4467 145.19 76.3604 142.565 77.6441 140.868C78.6074 140.794 79.5761 140.841 80.5274 141.01L82.2069 141.188C85.5375 141.496 95.4741 143.731 98.1596 144.409C99.5727 145.146 100.797 146.199 101.739 147.485C102.449 148.356 103.423 148.971 104.514 149.239L123.239 154.002C128.069 155.256 133.194 154.644 137.594 152.288C139.238 151.461 141.973 150.058 144.575 148.703C144.498 149.019 144.408 149.324 144.306 149.63C142.914 153.635 142.632 154.725 143.838 157.674C143.944 157.94 144.077 158.229 144.217 158.617L144.386 159.065C145.12 160.977 145.12 160.977 144.345 162.65C143.257 165.197 142.986 168.02 143.568 170.728C140.832 169.68 137.996 168.64 136.242 168.119C133.707 167.242 131.011 166.925 128.341 167.192C125.672 167.459 123.092 168.302 120.78 169.664C116.509 171.855 112.13 173.83 107.66 175.581C104.558 176.756 101.39 177.752 98.1724 178.562C97.3277 178.708 96.5669 179.161 96.0373 179.835C95.4995 180.506 95.236 181.356 95.3 182.214C95.3591 183.068 95.7316 183.87 96.346 184.467C96.9604 185.063 97.7734 185.411 98.629 185.445C101.217 185.563 103.795 185.86 106.342 186.334L109.148 186.78C112.933 187.491 116.654 188.51 120.274 189.825L120.41 189.815C122.513 190.51 124.488 191.177 126.236 191.611C131.071 192.859 136.198 192.247 140.603 189.896C142.271 189.055 145.091 187.609 147.597 186.31C147.522 186.624 147.428 186.934 147.315 187.238C145.923 191.231 145.638 192.296 146.846 195.257ZM127.967 184.882C126.383 184.474 124.382 183.809 122.471 183.175C119.732 182.264 116.737 181.26 113.712 180.532C117.187 179.039 120.644 177.472 124.003 175.751C125.518 174.818 127.228 174.246 128.999 174.078C130.77 173.91 132.556 174.151 134.22 174.782C135.999 175.313 139.614 176.634 144.438 178.514C145.242 178.798 146.099 178.894 146.946 178.794C144.102 180.242 139.752 182.544 137.434 183.693C134.539 185.263 131.16 185.687 127.967 184.882Z" fill="#333333"/>
<path d="M119.883 155.947C119.44 155.327 118.791 154.884 118.052 154.698L117.891 154.709C111.253 153.054 104.517 151.813 97.7242 150.995C91.6387 150.423 85.5228 150.243 79.4142 150.455C78.9835 150.465 78.5593 150.563 78.1679 150.743C77.7765 150.923 77.4261 151.181 77.1385 151.502C76.842 151.824 76.6153 152.205 76.4724 152.619C76.339 153.023 76.2851 153.45 76.3137 153.874C76.3349 154.293 76.4389 154.702 76.6197 155.08C76.8006 155.458 77.0546 155.796 77.3671 156.075C77.9958 156.642 78.8199 156.944 79.6664 156.917C85.487 156.705 91.3151 156.869 97.1146 157.407C100.661 157.774 104.99 158.483 109.965 159.519C111.847 159.919 113.466 160.288 114.617 160.554L116.502 161.003C116.826 161.079 117.159 161.105 117.49 161.082C118.255 161.03 118.977 160.707 119.525 160.171C120.072 159.634 120.41 158.92 120.477 158.156C120.554 157.372 120.343 156.587 119.883 155.947Z" fill="#333333"/>
<path d="M122.486 192.216C122.223 191.851 121.887 191.545 121.501 191.316L121.492 191.193L120.642 190.968L119.743 190.746C113.357 189.152 106.878 187.955 100.344 187.163C94.2299 186.589 88.0849 186.411 81.9476 186.63C81.1128 186.696 80.337 187.086 79.7868 187.717C79.4965 188.034 79.2745 188.407 79.1346 188.813C78.9946 189.218 78.9398 189.649 78.9735 190.077C79.0072 190.921 79.3737 191.718 79.9929 192.294C80.6121 192.869 81.4337 193.176 82.2785 193.148C88.1002 192.951 93.9286 193.122 99.7285 193.662C106.246 194.459 112.708 195.657 119.078 197.249C119.413 197.333 119.76 197.363 120.104 197.337C120.864 197.281 121.58 196.962 122.129 196.433C122.68 195.884 123.012 195.153 123.064 194.376C123.134 193.61 122.929 192.845 122.486 192.216Z" fill="#333333"/>
<path d="M68.6859 154.347C68.0746 153.698 67.2352 153.313 66.345 153.271C65.452 153.234 64.5807 153.552 63.9207 154.154L64.5423 154.843L63.957 154.139C63.2921 154.719 62.8818 155.537 62.8146 156.417C62.7474 157.297 63.0287 158.167 63.5979 158.842L66.1611 164.23C66.1823 165.459 66.0999 166.689 65.9148 167.904C65.7343 168.906 65.4809 169.892 65.1565 170.857C64.9018 171.675 64.9652 172.558 65.3341 173.332C65.5211 173.733 65.7855 174.093 66.1122 174.392C66.4388 174.691 66.8213 174.922 67.2377 175.073C67.6793 175.235 68.1506 175.298 68.6193 175.26C69.2602 175.218 69.8756 174.993 70.3927 174.612C70.9098 174.231 71.307 173.71 71.5372 173.11C72.0703 171.728 72.4634 170.295 72.7105 168.835C72.924 167.221 73.011 165.593 72.9706 163.965C72.7989 160.335 71.2696 156.902 68.6859 154.347Z" fill="#333333"/>
</svg>
