<svg fill="none" height="149" viewBox="0 0 160 149" width="160" xmlns="http://www.w3.org/2000/svg"><path d="m151.838 76.5477-7.836-12.4955-34.462-54.99257c-.413-.68189-1.077-1.17527-1.849-1.37481-.76-.15879-1.552-.02224-2.215.38189l-64.9824 40.86249c-.3318.2042-.6191.473-.8448.7906-.2257.3175-.3852.6773-.4689 1.0578-.0863.3786-.097.7705-.0315 1.1532s.206.7488.4134 1.077l1.5276 2.49-4.9952 3.1315 3.1316 5.0104-9.9904 6.2631 5.6673 6.8893-10.9374 6.813 6.8435 6.1103-12.1441 7.6378 8.2488 5.2698-11.0443 6.951 6.37 2.963-13.2288 8.295c-.49587.309-.88889.758-1.12918 1.29s-.31702 1.124-.22046 1.7c.09655.576.36205 1.111.7628 1.536s.91869.721 1.48811.851l65.05923 14.924c.183.015.3669.015.5499 0 .2466.005.4928-.021.7333-.076h.1986c.2467-.07.483-.173.7026-.305l70.0237-43.8723c.175-.1054.334-.2339.474-.3819l.168-.1681.198-.2444.153-.2749.107-.1833c.096-.1888.168-.389.214-.5958l3.727-16.2533c.163-.7649.026-1.5631-.382-2.2303z" fill="#fff"/><path d="m75.6121 148.832h-.4735c-.6179-.029-1.2316-.116-1.8331-.259l-65.1051-14.91c-2.03728-.473-3.88892-1.539-5.32184-3.063-1.43293-1.523-2.383102-3.437-2.730936-5.499-.347834-2.063-.0777799-4.182.776171-6.092.853955-1.909 2.253635-3.523 4.022875-4.639l3.69673-2.322c-.21832-.652-.35181-1.33-.39717-2.016-.08694-1.372.19782-2.741.82424-3.965.62642-1.223 1.57133-2.254 2.73503-2.986l1.1151-.687c-1.2233-1.406-1.8962-3.2076-1.8942-5.0715.0077-1.2876.3409-2.5524.9685-3.6768.6276-1.1243 1.5293-2.0718 2.6213-2.7542l3.6051-2.2455c-.7342-.8273-1.2799-1.8042-1.5995-2.8631-.3195-1.0589-.4052-2.1746-.2513-3.2699.154-1.0953.5441-2.1441 1.1432-3.0738.5991-.9298 1.393-1.7183 2.3268-2.3111l3.6662-2.2303-.1375-.168c-.692-.8381-1.1972-1.8142-1.4817-2.8631-.2846-1.0489-.3421-2.1464-.1686-3.2193s.574-2.0964 1.1747-3.0021c.6007-.9058 1.3878-1.6729 2.3087-2.2501l3.6967-2.3066c-.5245-1.5251-.5528-3.1771-.0809-4.7193.472-1.5422 1.4201-2.8954 2.7083-3.8657-.1249-1.1437-.0578-2.3002.1986-3.4217.6307-2.7488 2.3217-5.1371 4.7049-6.645l64.9831-40.77083c1.178-.754565 2.495-1.267273 3.873-1.508305 1.379-.2410327 2.791-.2055787 4.156.104299 1.365.309879 2.654.887996 3.793 1.700726s2.105 1.84385 2.842 3.03338l42.314 67.48803c1.483 2.3878 1.966 5.2634 1.344 8.0045l-3.803 16.2534c-.171.7311-.417 1.4426-.733 2.1233 0 .168-.168.3361-.26.5041l-.321.5652c-.233.4013-.504.7803-.81 1.1303l-.427.489c-.131.159-.274.307-.428.443-.52.513-1.094.968-1.711 1.359l-69.9779 43.872c-.7877.484-1.635.864-2.5205 1.131-.2256.073-.4551.134-.6874.183-.8011.189-1.621.286-2.4441.29zm-52.9609-27.496 52.1818 11.915 66.648-41.8096 2.857-12.4802-38.786-61.8667-57.207 35.8674c.4708 1.3745.5398 2.8549.1989 4.2673s-1.0776 2.6982-2.1237 3.7066c.6251 1.6458.6624 3.457.1057 5.1271-.5567 1.6702-1.6733 3.0967-3.1608 4.0383l-2.6733 1.5887.1375.168c.692.8381 1.1971 1.8142 1.4817 2.8631s.3421 2.1465.1686 3.2193c-.1736 1.0729-.574 2.0964-1.1747 3.0022-.6007.9057-1.3878 1.6728-2.3087 2.25l-2.4441 1.5276c.7389.8329 1.2866 1.8173 1.605 2.8843.3184 1.0669.3997 2.1905.2381 3.2921-.1615 1.1016-.5619 2.1546-1.1732 3.0852s-1.4186 1.7163-2.3655 2.3021l-2.1997 1.3748c1.2347 1.3934 1.9095 3.1944 1.8942 5.0564-.0035 1.289-.3332 2.556-.9582 3.683s-1.525 2.078-2.6163 2.763l-1.5276.947c.2171.648.3505 1.32.3972 2.001.0869 1.372-.1978 2.742-.8243 3.965-.6264 1.223-1.5713 2.255-2.735 2.986z" fill="#fff"/><path d="m110.822 12.7561c.381.0837.74.2432 1.058.4689.317.2257.586.513.79.8448l39.167 62.4777c.408.6671.545 1.4653.382 2.2302l-3.727 16.2534c-.185.7618-.655 1.4236-1.314 1.8483l-69.9777 43.8716c-.4991.32-1.0832.483-1.6759.466s-1.1665-.212-1.6466-.56c-.48-.349-.844-.833-1.0443-1.391s-.2276-1.164-.0785-1.738l5.9728-22.165-35.9742-57.4213c-.4081-.6672-.5448-1.4654-.3819-2.2303.0871-.3771.2481-.7333.4736-1.0479s.511-.5814.8401-.7852l64.9216-40.7403c.663-.4041 1.455-.5407 2.215-.3819z" fill="#00ffac"/><path d="m75.6269 141.592c-.4978-.005-.9884-.12-1.436-.338s-.8409-.533-1.1512-.923c-.3103-.389-.5298-.843-.6424-1.328-.1127-.485-.1157-.989-.0089-1.475l5.927-22.027-35.9437-57.4065c-.2338-.3712-.392-.785-.4654-1.2176-.0734-.4325-.0606-.8753.0377-1.3029.2172-.8659.7658-1.6119 1.5275-2.0775l64.9675-40.6945c.754-.4607 1.659-.6087 2.521-.4124.844.1804 1.585.685 2.062 1.4053l39.151 62.6305c.462.7484.61 1.6483.413 2.5052l-3.727 16.1922c-.106.4298-.295.8346-.557 1.1911s-.592.6577-.971.8864l-69.9321 43.8717c-.5278.342-1.1435.522-1.772.52zm34.5541-128.5303c-.487-.0006-.964.1371-1.375.3972l-64.9831 40.7403c-.5642.3429-.9745.89-1.1457 1.5276-.1437.6658-.0232 1.3613.3361 1.94l36.0354 57.5592c.0216.045.0329.095.0329.145s-.0113.1-.0329.145l-5.927 22.18c-.1128.496-.0757 1.014.1066 1.489.1824.475.5017.885.9175 1.178.4157.293.9092.456 1.4177.468s1.0091-.127 1.4382-.4l69.9783-43.8723c.558-.3497.966-.894 1.145-1.5275l3.728-16.2687c.074-.3295.083-.6706.025-1.0035s-.18-.6512-.361-.9365l-39.167-62.554c-.346-.562-.892-.9716-1.528-1.1457-.21-.0495-.426-.0701-.641-.0611z" fill="#3d3dff"/><path d="m105.477 8.12783-64.9831 40.80137c-.3318.2042-.6191.4731-.8448.7906-.2257.3176-.3852.6773-.4689 1.0578-.0863.3786-.0971.7705-.0315 1.1532.0655.3828.206.7488.4134 1.0771l34.462 54.9921c-.21-.328-.3526-.694-.4194-1.078-.0668-.383-.0565-.777.0302-1.156.0867-.38.2482-.739.475-1.055.2268-.317.5144-.585.846-.789l64.9831-40.8016c.327-.2076.693-.3482 1.075-.4137s.773-.0547 1.151.032c.378.0866.735.2473 1.05.4728s.583.5112.787.8407l-34.462-54.99255c-.413-.6819-1.076-1.17528-1.848-1.37482-.768-.14072-1.561.01779-2.215.443z" fill="#f1f2f2"/><path d="m74.0233 108.306c-.0646-.001-.1279-.019-.184-.051s-.1032-.077-.1368-.133l-34.4773-54.9922c-.4583-.755-.6113-1.6565-.4277-2.5204.2188-.8653.767-1.6107 1.5276-2.0775l64.9369-40.72508c.748-.46659 1.65-.61765 2.509-.42007.859.19757 1.605.72767 2.074 1.47409l34.462 54.99256c.051.0854.067.1875.044.2846-.022.097-.082.1813-.166.2348-.088.0523-.193.0687-.292.046-.1-.0228-.187-.083-.243-.1682-.344-.5631-.891-.9731-1.528-1.1457-.661-.1364-1.349-.0163-1.924.3361l-65.029 40.74c-.5776.362-.9884.938-1.143 1.602-.1545.664-.0402 1.362.3181 1.942.0282.041.0479.087.0578.136.0099.048.0098.098-.0002.147-.01.048-.0297.094-.058.135s-.0645.075-.1065.102c-.0637.041-.1381.062-.2139.061zm33.0257-100.23949c-.486-.00065-.963.1371-1.374.39717l-64.9833 40.74032c-.2873.1763-.5366.4081-.7333.6818-.1967.2738-.3369.584-.4122.9126-.0754.3285-.0845.6688-.0269 1.001.0577.3321.181.6494.3628.9333l33.4233 53.1903c-.0086-.102-.0086-.204 0-.306.2157-.866.7646-1.613 1.5275-2.077l64.9061-40.7406c.371-.2354.785-.3945 1.218-.4679.432-.0735.875-.0598 1.303.0402l.29.0763-33.331-53.23581c-.364-.57785-.94-.98942-1.604-1.14568-.188-.02257-.378-.02257-.566 0z" fill="#3d3dff"/><path d="m36.1125 58.5739 37.6141 59.9851 69.9764-43.8789-37.614-59.9852z" fill="#fff"/><path d="m73.733 118.938h-.0917c-.0485-.009-.0944-.029-.1342-.058-.0397-.029-.0722-.067-.0949-.111l-37.6088-59.9872c-.0217-.0453-.033-.0949-.033-.1451 0-.0503.0113-.0999.033-.1452.0085-.0505.0279-.0985.0569-.1408.0291-.0422.067-.0775.1111-.1036l69.9326-43.8718c.041-.0275.088-.0463.137-.055.05-.0088.1-.0074.149.004.048.0115.094.0327.134.0625s.074.0675.099.1107l37.609 59.9877c.051.0854.067.1875.044.2846-.022.097-.082.1813-.166.2348l-69.9784 43.8714c-.0581.041-.1276.063-.1986.062zm-37.0895-60.2479 37.2117 59.3459 69.3368-43.4744-37.212-59.3309z" fill="#3d3dff"/><path d="m29.2656 69.8414 43.5358 52.7776 69.9776-43.8718-43.5353-52.7776z" fill="#fff"/><path d="m72.8016 123.001c-.0577 0-.1147-.013-.1673-.036-.0527-.024-.0997-.059-.1382-.102l-43.49-52.7772c-.0362-.0986-.0362-.2069 0-.3055.0064-.0532.0248-.1043.0539-.1493.0292-.045.0682-.0828.1142-.1104l69.8711-43.8718c.0672-.0601.1542-.0934.2444-.0934s.1772.0333.2444.0934l43.5359 52.7775c.036.0414.063.09.079.1428.016.0527.02.1082.013.1628-.029.1056-.094.1977-.184.2597l-69.9778 43.9484c-.0581.041-.1276.062-.1986.061zm-42.9706-53.0679 43.047 52.1819 69.336-43.4595-43.0618-52.1818z" fill="#3d3dff"/><path d="m23.9657 83.6049 47.9047 43.0931 69.9776-43.8875-47.9042-43.0775z" fill="#fff"/><path d="m71.8705 127.064c-.0945.001-.1861-.032-.2596-.091l-47.9047-43.0777c-.0474-.0355-.0859-.0817-.1124-.1347s-.0403-.1115-.0403-.1708.0138-.1177.0403-.1708c.0265-.053.065-.0991.1124-.1347l70.0392-43.8718c.067-.0474.147-.0728.2291-.0728.082 0 .1621.0254.2291.0728l47.8434 43.1233c.077.0832.121.1921.122.3055-.005.0593-.025.1165-.057.1669s-.075.0926-.126.1234l-69.9169 43.8874c-.0621.029-.1298.045-.1986.045zm-47.2783-43.3978 47.3547 42.5428 69.2751-43.4441-47.3544-42.5581z" fill="#3d3dff"/><path d="m18.6641 97.3682 52.2734 33.3928 69.9785-43.8872-52.2739-33.3775z" fill="#fff"/><path d="m70.9373 131.143c-.0705.015-.1434.015-.2139 0l-52.2582-33.4539c-.0585-.0298-.1071-.076-.1397-.133-.0325-.057-.0477-.1223-.0436-.1878.0035-.0641.0219-.1264.0537-.1821.0319-.0557.0762-.1032.1296-.1387l69.978-43.8718c.0622-.0378.1335-.0578.2063-.0578.0727 0 .144.02.2062.0578l52.2583 33.3774c.057.0349.104.0844.137.1434.032.059.048.1254.046.1926-.003.0641-.022.1264-.054.1821-.031.0557-.076.1032-.129.1387l-69.9781 43.8721c-.0613.034-.1289.055-.1986.061zm-51.5555-33.7747 51.5555 32.9347 69.2597-43.4291-51.6163-32.9192z" fill="#3d3dff"/><path d="m15.8684 109.574 54.1371 25.25 69.9785-43.8715-54.1376-25.2507z" fill="#fff"/><path d="m70.0059 135.206h-.1681l-54.1371-25.296c-.0609-.03-.1128-.075-.1503-.132-.0376-.056-.0595-.121-.0635-.189-.0073-.068.0064-.137.0391-.197.0328-.06.0831-.108.1442-.139l69.978-43.8872c.0562-.0307.1192-.0468.1833-.0468s.1271.0161.1833.0468l54.1222 25.2355c.063.0276.118.072.159.1285.04.0566.064.123.07.1923.001.0692-.015.1377-.047.1991s-.079.1138-.137.1522l-69.9317 43.8716c-.0705.052-.1581.073-.2444.061zm-53.3428-25.678 53.3122 24.853 69.2147-43.3825-53.3127-24.8689z" fill="#3d3dff"/><path d="m152.22 78.7778-3.727 16.2534c-.043.1889-.104.3732-.183.5499l-.138.2291c-.041.0967-.092.1889-.153.275 0 .0917-.137.168-.198.2444l-.184.1986c-.143.1291-.296.2466-.458.3513l-69.9778 43.8715c-.6672.408-1.4654.545-2.2303.382l-65.05923-14.924c-.56942-.13-1.08736-.427-1.48811-.851-.40075-.425-.66625-.96-.7628-1.536-.09656-.576-.01983-1.168.22046-1.7s.63331-.981 1.12918-1.29l69.978-43.872c.3291-.2056.6956-.3438 1.0784-.4068.3828-.0629.7744-.0492 1.1519.0402l62.1873 14.2522 3.055-13.3968" fill="#00ffac"/><path d="m75.6271 141.592c-.2677.004-.5347-.027-.7944-.092l-64.99811-14.909c-.64963-.144-1.24163-.478-1.70034-.96-.4587-.482-.76328-1.09-.87479-1.746s-.02489-1.33.24878-1.937c.27368-.606.72198-1.117 1.2876-1.468l69.99326-43.8408c.3683-.2342.7795-.3926 1.2096-.466.4301-.0735.8706-.0604 1.2957.0383l61.8206 14.1758 3.055-13.0149c.011-.0491.032-.0956.061-.1368s.066-.0763.108-.1032c.043-.027.09-.0453.14-.0539s.1-.0073.15.0037c.049.011.095.0316.136.0606.042.029.077.0659.104.1084.027.0426.045.09.053.1396.009.0497.008.1005-.003.1497l-3.055 13.3968c-.029.0932-.088.1741-.168.2291-.046.0217-.095.0329-.145.0329-.051 0-.1-.0112-.146-.0329l-62.2787-14.2064c-.6638-.1482-1.3592-.0332-1.94.3208l-70.03911 43.8872c-.42959.27-.76945.661-.97663 1.125-.20719.463-.27239.977-.18738 1.477.08501.501.31643.964.665 1.333s.79865.626 1.29334.739l65.05928 14.909c.6638.149 1.3592.034 1.94-.32l70.0392-43.8723c.142-.0937.275-.2011.397-.3208 0 0 0 0 .092-.0916l.183-.1986.092-.1681.091-.1527v-.1222c.065-.1545.122-.3126.168-.4736l3.728-16.2686c.003-.0557.018-.11.044-.1593s.062-.0922.107-.1258c.044-.0336.096-.0571.15-.0688.055-.0116.111-.0112.165.0012.055.0125.106.0367.15.0709.044.0343.08.0777.105.1274.025.0496.04.1042.042.1599s-.008.1112-.03.1625l-3.605 16.1923c-.051.2153-.122.425-.214.6263l-.107.1986v.1222c-.045.0848-.096.1665-.153.2444-.051.0749-.107.1464-.168.2139l-.107.1069-.152.168c-.151.1535-.32.287-.505.3972l-70.0539 43.8717c-.5299.337-1.1442.517-1.772.52z" fill="#3d3dff"/><path d="m81.2187 76.5934 48.7903 11.1818c.591.1148 1.132.4075 1.552.8389.419.4314.697.9808.795 1.5745s.012 1.2031-.246 1.7466c-.259.5434-.677.9948-1.199 1.2934l-69.9785 43.7954c-.6671.408-1.4653.545-2.2302.382l-48.79063-11.197c-.56942-.13-1.08736-.427-1.48811-.851-.40075-.425-.66625-.96-.7628-1.536-.09656-.576-.01983-1.168.22046-1.7s.63331-.981 1.12918-1.29l69.978-43.872c.329-.2056.6956-.3438 1.0784-.4068.3828-.0629.7744-.0492 1.1519.0402z" fill="#f1f2f2"/><g fill="#3d3dff"><path d="m59.3584 137.849c-.2435.029-.4897.029-.7332 0l-48.79061-11.258c-.64963-.144-1.24163-.478-1.70034-.96-.4587-.482-.76328-1.09-.87479-1.746s-.02489-1.33.24878-1.937c.27368-.606.72198-1.117 1.2876-1.468l69.99326-43.8408c.3683-.2342.7795-.3926 1.2096-.466.4301-.0735.8706-.0604 1.2956.0383l48.8827 11.1971c.653.1392 1.25.4718 1.712.9545.462.4828.768 1.0934.878 1.7524.111.659.02 1.336-.259 1.943-.28.6069-.735 1.1158-1.308 1.4603l-70.1154 43.8262c-.517.326-1.115.501-1.7262.504zm21.2027-60.9501c-.4852-.0061-.9622.1264-1.3748.3819l-70.03911 43.8872c-.42959.27-.76945.661-.97663 1.125-.20719.463-.27239.977-.18738 1.477.08501.501.31643.964.665 1.333s.79865.626 1.29334.739l48.85168 11.182c.6639.148 1.3593.033 1.9401-.321l69.9777-43.8716c.435-.2683.78-.6602.99-1.1256.211-.4654.278-.9831.193-1.4867-.086-.5037-.319-.9704-.672-1.3405-.352-.37-.806-.6266-1.305-.7368l-48.7907-11.1818c-.1852-.043-.375-.0635-.5652-.0611z"/><path d="m134.988 94.4661h-.092l-48.7902-11.1971c-.0493-.0108-.0959-.0313-.1372-.0602-.0413-.029-.0764-.0658-.1034-.1084s-.0453-.0902-.0538-.1399-.0071-.1006.0042-.1498c.0108-.0492.0313-.0958.0602-.1371.029-.0413.0658-.0765.1084-.1035s.0901-.0452.1399-.0538c.0497-.0085.1006-.0071.1497.0042l48.7902 11.1818c.102.0102.195.0601.259.1389.065.0788.095.1799.085.2812s-.06.1944-.139.2589c-.078.0644-.18.0949-.281.0848z"/><path d="m19.6413 121.519c-.0655.004-.1308-.011-.1878-.043-.057-.033-.1032-.081-.1329-.14-.0283-.041-.0479-.087-.0578-.135-.0099-.049-.0099-.099.0001-.148.01-.048.0298-.094.058-.135.0283-.041.0646-.075.1066-.101l15.0007-9.41c.0878-.052.1923-.069.2918-.046.0996.023.1866.083.2429.168.0487.089.0631.192.0406.291-.0225.098-.0805.185-.1628.244l-15.0008 9.394c-.0581.041-.1276.062-.1986.061z"/><path d="m91.6363 125.17c-.0646-.001-.1279-.018-.184-.05s-.1032-.078-.1367-.133c-.0276-.042-.0463-.089-.0551-.138s-.0074-.1.0041-.148c.0114-.049.0327-.095.0625-.135.0297-.04.0674-.073.1107-.098l34.9812-21.936c.042-.031.09-.052.141-.063.05-.012.103-.012.154-.003.051.01.099.03.142.059s.08.066.108.11.046.092.055.144c.009.051.007.103-.006.153-.012.051-.035.098-.066.14-.031.041-.07.076-.115.101l-35.0735 21.936c-.0356.029-.0773.05-.1222.061z"/><path d="m49.5521 127.355c-.0591-.001-.1172-.016-.17-.042-.0529-.027-.0991-.064-.1355-.111-.8022-1.215-1.193-2.655-1.1151-4.109-.2612-5.172 1.159-10.29 4.048-14.588.0251-.05.0606-.093.1039-.127s.0935-.058.1471-.071.1093-.014.1634-.003c.054.011.1051.033.1497.065.0447.033.0817.074.1088.122.027.048.0433.102.0477.157.0045.055-.003.11-.0219.162-.0189.051-.0488.098-.0876.138-2.7937 4.165-4.1704 9.12-3.9259 14.13-.0847 1.287.2474 2.567.9471 3.65.0365.035.0656.076.0856.122.0199.046.0301.096.0301.146s-.0102.099-.0301.145c-.02.046-.0491.088-.0856.122-.0344.033-.0753.058-.12.074-.0448.016-.0924.022-.1397.018z"/><path d="m100.298 105.77c-.083.001-.165-.024-.232-.073-.0668-.049-.1162-.118-.1404-.198-.0241-.079-.0218-.164.0068-.242.0285-.078.0816-.145.1516-.19l5.453-3.421c.102-.068.181-.163.229-.275s.063-.236.042-.356-.077-.231-.16-.32c-.084-.088-.191-.151-.309-.18-.994-.224-2.037-.049-2.903.489l-4.5824 2.841c-1.0406.641-2.2885.854-3.4828.596-.2679-.063-.511-.204-.6986-.405-.1877-.201-.3114-.454-.3555-.725-.0476-.27-.0134-.548.0982-.799.1116-.25.2955-.462.5281-.607l3.3912-2.1231c.1091-.0595.1961-.1525.2484-.2653.0522-.1127.0669-.2393.0419-.361-.0207-.1212-.0767-.2337-.1609-.3233s-.1929-.1525-.3127-.1808c-.492-.1154-1.002-.1316-1.5004-.0477-.4983.084-.9749.2664-1.4019.5366l-4.5828 2.8416c-.5102.322-1.0792.541-1.6743.644-.5951.102-1.2045.085-1.7932-.049-.2698-.062-.5152-.202-.7054-.403s-.3168-.454-.3639-.727c-.0462-.272-.0097-.551.1047-.801.1144-.251.3014-.461.5368-.604l3.3912-2.1237c.1045-.0645.1876-.1582.2392-.2695.0516-.1114.0694-.2354.0511-.3568-.0207-.1212-.0767-.2337-.1609-.3233-.0842-.0897-.193-.1525-.3127-.1808-.492-.1154-1.002-.1316-1.5004-.0477-.4983.0839-.9749.2663-1.4019.5365l-4.5828 2.8413c-.5122.325-1.0838.545-1.6817.647-.5978.102-1.21.085-1.8011-.051-.2688-.061-.5135-.201-.7029-.401-.1893-.2-.3149-.452-.3608-.7238-.0458-.2718-.0098-.551.1034-.8023s.2986-.4632.5326-.6089l3.4064-2.1233c.1015-.0674.1811-.1629.2292-.2748.048-.1119.0624-.2354.0413-.3554-.0211-.1199-.0767-.2312-.16-.32-.0833-.0889-.1907-.1515-.309-.1802-.9941-.2263-2.0373-.0506-2.9024.4888l-4.5827 2.8413c-.5133.3222-1.0855.5395-1.6833.6391-.5979.0997-1.2095.0797-1.7996-.0587-.2594-.0851-.4881-.2447-.6573-.4589-.1693-.2143-.2718-.4736-.2946-.7457s.035-.5449.1663-.7843c.1312-.2395.3301-.435.5717-.5621l5.4382-3.4065c.0421-.0303.0899-.0517.1405-.0629.0506-.0113.103-.0121.1539-.0024.051.0097.0994.0296.1424.0586s.0796.0665.1077.1101c.028.0436.0469.0925.0554.1436.0085.0512.0066.1035-.0058.1539-.0123.0503-.0348.0976-.0661.139-.0312.0414-.0705.076-.1156.1017l-5.4534 3.4218c-.1015.0673-.1811.1628-.2291.2747-.0481.112-.0624.2355-.0413.3554.021.12.0766.2312.1599.32.0833.0889.1907.1515.3091.1803.9941.2245 2.0367.0489 2.9024-.4889l4.5827-2.8412c.5102-.3229 1.0792-.5417 1.6743-.6439.5951-.1023 1.2045-.0859 1.7933.0481.2666.0601.5093.1982.697.3968.1878.1987.3121.4487.357.7183.0543.2703.0231.5508-.0891.8026s-.2999.4624-.5372.6028l-3.3912 2.1386c-.1059.063-.1902.1565-.242.2682-.0518.1118-.0686.2366-.0483.3581.0208.1212.0767.2337.1609.3234.0842.0896.193.1525.3127.1807.9941.2263 2.0373.0506 2.9024-.4888l4.5827-2.8413c.5122-.3249 1.0838-.5448 1.6817-.6471.5979-.1022 1.2101-.0848 1.8012.0513.2678.063.5109.204.6986.4053.1876.2012.3113.4536.3554.7252.0465.2677.0117.5433-.1.791-.1116.2478-.295.4565-.5263.599l-3.4065 2.1387c-.1015.067-.1811.163-.2291.275-.0481.112-.0624.235-.0414.355.0211.12.0767.231.16.32s.1907.152.3091.18c.492.116 1.002.132 1.5004.048.4983-.084.9749-.266 1.402-.536l4.5827-2.8418c.5122-.3248 1.0838-.5448 1.6817-.647.5978-.1023 1.2101-.0848 1.8011.0513.2679.0629.511.204.6986.4052.1877.2012.3114.4536.3555.7252.0476.27.0134.5481-.0982.7985-.1116.2506-.2955.4616-.5281.6066l-3.3913 2.124c-.109.059-.196.152-.2483.265-.0522.113-.0669.239-.0419.361.0207.121.0767.234.1609.323.0842.09.1929.153.3127.181.994.226 2.0372.051 2.9023-.489l4.583-2.841c1.034-.6412 2.278-.8548 3.467-.5959.27.0622.515.2026.706.4039.19.201.317.454.364.727.046.271.009.55-.105.801-.114.25-.302.461-.537.604l-5.637 3.437c-.058.041-.127.062-.198.061z"/><path d="m91.2244 107.97-16.3909-3.743c-.0492-.01-.0958-.031-.1371-.06s-.0765-.066-.1035-.108c-.027-.043-.0452-.09-.0538-.14-.0085-.05-.0071-.101.0042-.15.0106-.049.0312-.095.0603-.136.0292-.04.0664-.075.1094-.101.0429-.025.0907-.042.1403-.049.0496-.006.1001-.003.1483.011l16.2686 3.727c.0872.026.1626.081.2126.157.0501.076.0715.167.0605.257-.0111.09-.0538.173-.1207.234-.0668.062-.1533.097-.244.101z"/></g></svg>