<svg fill="none" height="132" viewBox="0 0 140 132" width="140" xmlns="http://www.w3.org/2000/svg"><path d="m124.463 111.293-.101.018-89.6435 16c-3.7155.661-7.5434-.19-10.6426-2.366-3.0991-2.176-5.2162-5.498-5.8861-9.238l-14.09281-78.9566c-.66237-3.7227.16315-7.5545 2.29679-10.661 2.13365-3.1064 5.40262-5.2358 9.09502-5.9246l.1007-.0186 89.5935-15.99038c3.715-.65608 7.54.19678 10.638 2.37178 3.098 2.17499 5.216 5.4948 5.89 9.2322l14.144 78.9474c.662 3.7227-.163 7.5548-2.297 10.6608-2.134 3.107-5.403 5.236-9.095 5.925zm-89.9856-1.401 84.0466-14.9976-13.1-73.3193-84.0164 14.9744z" fill="#fff"/><path d="m14.5122 46.5678 12.091 67.6852c.1325.74.4085 1.447.8122 2.08.4038.633.9273 1.18 1.5408 1.61.6134.431 1.3048.735 2.0345.897.7298.161 1.4837.177 2.2187.045l89.6436-16c.739-.132 1.444-.41 2.075-.817s1.176-.936 1.603-1.556c.427-.6198.728-1.3187.886-2.0567.158-.7379.17-1.5003.034-2.2434l-12.091-67.685z" fill="#ffff60"/><path d="m122.975 103.265-89.6938 16.009c-.7875.143-1.5957.13-2.3786-.041s-1.5251-.495-2.1842-.954-1.2223-1.044-1.6572-1.721c-.435-.678-.7333-1.434-.8779-2.227l-12.1078-67.6822c-.0208-.112.0035-.2277.0676-.3215.064-.0939.1625-.1582.2738-.1788l100.8541-18.0071c.057-.0098.116-.0078.172.0058s.109.0386.155.0734c.046.0293.085.0682.115.114.029.0458.048.0975.056.1515l12.091 67.6851c.273 1.5927-.086 3.2279-1 4.5548-.913 1.326-2.308 2.238-3.885 2.539zm-107.9713-56.3861 12.019 67.2961c.2511 1.38 1.0343 2.606 2.1787 3.409s2.557 1.119 3.9295.879l89.6601-16.003c1.366-.253 2.575-1.04 3.365-2.188.789-1.1488 1.094-2.5658.848-3.9422l-12.002-67.2994z" fill="#3d3dff"/><path d="m113.358 17.2553c-.13-.7417-.405-1.4506-.808-2.0859-.403-.6354-.927-1.1848-1.541-1.6166-.614-.4319-1.306-.7378-2.037-.9002-.731-.1625-1.487-.1782-2.223-.0463l-89.6606 16.0028c-.735.1316-1.4367.4077-2.0651.8124-.6283.4048-1.1709.9303-1.5969 1.5465-.426.6163-.727 1.3112-.8858 2.0452-.1588.7339-.1724 1.4925-.0398 2.2324l2.089 11.273 100.8542-18.0072z" fill="#f2f2f2"/><path d="m115.438 28.9495-100.8539 18.0072c-.1067.0136-.2149-.0094-.3072-.0652-.0922-.0559-.1632-.1414-.2013-.2427l-2.089-11.273c-.1489-.8031-.1375-1.6277.0335-2.4256.1711-.7979.4984-1.5532.9629-2.2218.4644-.6686 1.0567-1.2372 1.7424-1.6725.6856-.4353 1.4509-.7287 2.2511-.8631l89.6945-16.009c1.597-.2776 3.24.0915 4.572 1.0268 1.331.9353 2.242 2.3611 2.535 3.9669l2.086 11.2561c.017.1126-.005.2277-.061.326-.039.0611-.093.1109-.157.1442s-.136.0491-.208.0457zm-100.5907 17.0843 100.0147-17.8516-2.011-10.8505c-.248-1.3657-1.017-2.5808-2.143-3.385s-2.519-1.1337-3.881-.9179l-89.6603 16.0029c-.6799.1213-1.3291.3763-1.9104.7504s-1.0835.8599-1.4778 1.4297-.673 1.2124-.8202 1.8912-.16 1.3804-.0378 2.0648z" fill="#3d3dff"/><path d="m21.9344 39.3887c1.5485-.2869 2.5696-1.7832 2.2807-3.342s-1.7783-2.5899-3.3267-2.3029c-1.5485.2869-2.5696 1.7832-2.2807 3.342.2888 1.5588 1.7783 2.5898 3.3267 2.3029z" fill="#ff6777"/><path d="m22.012 39.8114c-.4247.0787-.8609.0721-1.2835-.0193-.4226-.0915-.8232-.266-1.1789-.5137-.3558-.2476-.6595-.5634-.8938-.9292s-.3946-.7744-.4716-1.2024c-.0706-.4335-.0521-.8767.0542-1.3023s.2982-.8245.5639-1.1722c.2413-.3556.5503-.6595.9092-.894s.7606-.3951 1.1819-.4725c.8392-.1284 1.6961.0761 2.3901.5702.694.4942 1.1711 1.2396 1.3307 2.0793.083.4277.0787.8678-.0126 1.2934s-.2676.8279-.5184 1.1824c-.4841.715-1.2275 1.2104-2.0712 1.3803zm-1.046-5.645c-.6279.1174-1.1846.4779-1.5505 1.0041-.3596.5316-.4955 1.1851-.3782 1.8182s.4784 1.1946 1.0046 1.562c.2613.182.5556.3104.8661.3776.3105.0673.631.0721.9431.0143.312-.0578.6095-.1772.8753-.3512.2657-.1741.4945-.3994.6733-.6629.1824-.2617.3111-.5576.3784-.8702.0673-.3127.0719-.6358.0135-.9506-.0501-.3159-.1651-.618-.3375-.887-.1725-.269-.3986-.4991-.664-.6755-.527-.3736-1.1788-.523-1.8136-.4157z" fill="#3d3dff"/><path d="m33.1274 37.3845c1.5485-.2869 2.5696-1.7832 2.2807-3.342-.2888-1.5588-1.7783-2.5899-3.3267-2.303-1.5485.287-2.5696 1.7833-2.2807 3.3421s1.7783 2.5898 3.3267 2.3029z" fill="#00ffac"/><path d="m33.2826 37.8452c-.8235.0914-1.6517-.1344-2.3178-.632-.6662-.4977-1.121-1.2302-1.2729-2.0503-.152-.8201.0101-1.667.4537-2.3703.4437-.7033 1.1359-1.2108 1.9374-1.4205.4238-.0762.8585-.0677 1.2793.0251s.8196.2681 1.1735.5158.656.563.8891.928c.233.3649.3925.7722.4692 1.1988.1491.8534-.0412 1.7309-.5298 2.4428-.4886.712-1.2363 1.2014-2.0817 1.3626zm-1.043-5.6281c-.5862.1608-1.0905.5375-1.4129 1.0554s-.4395 1.1392-.328 1.7409c.1115.6016.4434 1.1398.93 1.5077.4866.368 1.0923.5389 1.6973.479.3339-.033.6572-.1355.9494-.3009s.547-.3901.7482-.6599.3445-.5788.4207-.9075c.0763-.3286.0839-.6698.0224-1.002-.0616-.3321-.1909-.6479-.3799-.9275-.189-.2795-.4335-.5166-.718-.6964s-.6029-.2983-.9349-.348c-.3321-.0497-.6707-.0295-.9943.0592z" fill="#3d3dff"/><path d="m44.3411 35.3939c1.5485-.2869 2.5696-1.7832 2.2807-3.342s-1.7783-2.5899-3.3267-2.303c-1.5485.287-2.5696 1.7833-2.2807 3.3421.2888 1.5588 1.7783 2.5898 3.3267 2.3029z" fill="#00cdff"/><g fill="#3d3dff"><path d="m44.413 35.7826c-.8549.1585-1.7381-.0315-2.4554-.528-.7173-.4966-1.2099-1.259-1.3693-2.1196-.1595-.8607.0271-1.749.5189-2.4696.4917-.7205 1.2483-1.2143 2.1032-1.3728.8551-.1492 1.7351.0472 2.4487.5467s1.2032 1.2617 1.3624 2.121c.1494.8551-.0401 1.7342-.5277 2.4487-.4877.7146-1.2347 1.2077-2.0808 1.3736zm-1.046-5.6449c-.6323.1171-1.1918.4824-1.5555 1.0153s-.5018 1.1899-.3838 1.8264c.1179.6365.4822 1.2004 1.0127 1.5676.5305.3673 1.1837.5077 1.816.3906.6323-.1172 1.1918-.4824 1.5555-1.0153.3637-.533.5017-1.1899.3838-1.8264-.118-.6365-.4823-1.2004-1.0127-1.5677-.5305-.3672-1.1838-.5077-1.816-.3905z"/><path d="m108.916 24.3018c-.115.016-.232-.0123-.327-.0792l-6.69-4.6165c-.048-.0319-.089-.0732-.121-.1214-.032-.0481-.054-.1022-.064-.159-.011-.0568-.01-.1152.003-.1715.012-.0564.035-.1096.069-.1566.067-.0935.167-.1574.279-.1783.113-.0209.229.0029.325.0663l6.606 4.6321c.092.0648.155.163.175.2736.021.1106-.003.2247-.065.318-.043.0819-.109.1489-.19.1925z"/><path d="m103.235 25.3196c-.057.0097-.115.0078-.171-.0059-.057-.0136-.11-.0385-.156-.0733-.047-.0305-.088-.0704-.119-.1172-.031-.0469-.053-.0996-.063-.155-.01-.0555-.009-.1124.003-.1673.013-.055.036-.1067.069-.1521l4.605-6.6395c.069-.076.164-.1242.266-.1356.102-.0115.205.0145.29.0732.084.0586.145.1461.171.2462s.015.2062-.03.2988l-4.604 6.6396c-.059.0944-.153.1619-.261.1881z"/><path d="m96.6257 20.6707-44.8318 7.9929c-.1113.0207-.2263-.0041-.3197-.0687-.0934-.0647-.1575-.164-.1783-.276-.0208-.1121.0035-.2277.0676-.3216.064-.0938.1625-.1581.2738-.1787l44.8318-7.993c.1113-.0206.2263.0041.3197.0688.0934.0646.1576.1639.1783.276.0164.1115-.0097.225-.073.3177-.0633.0928-.1592.158-.2684.1826z"/><path d="m97.6185 26.3079-44.8119 8.0068c-.1113.0206-.2263-.0041-.3197-.0688-.0934-.0646-.1576-.1639-.1783-.276-.0208-.112.0035-.2277.0675-.3215.0641-.0938.1626-.1581.2739-.1788l44.8287-8.0098c.1091-.0157.2202.0117.31.0766.0897.0648.151.162.1712.2712.0207.1121-.0036.2278-.0676.3216s-.1625.1581-.2738.1787z"/></g></svg>