<svg fill="none" height="120" viewBox="0 0 143 120" width="143" xmlns="http://www.w3.org/2000/svg"><path d="m135.267 49.4758-6.297-12.0094-6.312-12.0094-6.297-12.0093-18.3648-5.74299-84.4889 43.88039-5.77077 18.2758 6.29687 12.0094 12.5936 24.0337 18.38 5.743 84.489-43.88z" fill="#fff"/><path d="m45.0069 119.346c-.787-.002-1.5692-.121-2.3207-.354l-18.3645-5.743c-.9713-.302-1.873-.793-2.6535-1.443s-1.4245-1.446-1.8951-2.344l-18.890461-36.0286c-.472315-.8976-.761911-1.8793-.8521786-2.8886-.0902676-1.0092.020569-2.0263.3261526-2.9929l5.832687-18.2758c.61754-1.9464 1.98652-3.5691 3.80595-4.5112l84.38065-43.880448c.9062-.474161 1.8979-.764591 2.9177-.8544518 1.0199-.0898608 2.0474.0226351 3.0234.3309658l18.364 5.804534c.972.30252 1.873.7928 2.654 1.44275.78.64994 1.424 1.44677 1.895 2.34482l18.89 36.02813c.95 1.8087 1.139 3.9187.526 5.8661l-5.77 18.2297c-.308.965-.804 1.8603-1.46 2.6344-.655.7741-1.458 1.4118-2.362 1.8768l-84.4733 43.8808c-1.1014.578-2.3284.879-3.5738.877zm-12.9959-19.8307 12.2532 3.8337 78.8108-40.9396 3.791-12.1941-15.874-30.3776-12.2532-3.8337-78.811 40.9704-3.8523 12.1634z" fill="#fff"/><path d="m45.0073 111.647-18.38-5.743-12.5936-24.0337 5.7708-18.2758 84.4885-43.8804 25.203 48.0529z" fill="#00ffac"/><path d="m45.0066 112.032h-.1393l-18.349-5.789c-.1-.035-.183-.106-.232-.2l-12.5937-23.988c-.0387-.0937-.0387-.1988 0-.2925l5.7708-18.2758c.0151-.0506.0408-.0973.0755-.1372.0347-.0398.0775-.0718.1256-.0938l84.4585-43.8804c.044-.0235.093-.0378.143-.042s.101.0019.148.0177c.048.0158.092.0412.13.0745.037.0333.068.0738.089.1192l25.203 48.0375c.039.0937.039.1988 0 .2925-.015.0506-.041.0973-.076.1372-.034.0398-.077.0718-.125.0938l-84.4582 43.8803c-.0511.032-.1102.048-.1702.046zm-18.1015-6.451 18.0551 5.651 84.0088-43.6344-24.754-47.3601-84.1018 43.6187-5.6625 17.9833z" fill="#3d3dff"/><path d="m47.668 72.0473-27.8639-8.4528 84.4889-43.8804 9.902 17.7831z" fill="#00ffac"/><path d="m47.7141 72.463-28.9314-8.7761 85.6643-44.4808 10.289 18.4759zm-26.8892-8.9608 26.8118 8.1294 66.0313-34.2883-9.53-17.1057z" fill="#3d3dff"/><path d="m123.197 55.7427-9.449-18.0174-66.0691 34.3148 9.4489 18.0174z" fill="#00ffac"/><path d="m57.1213 90.4462c-.0696.0002-.1379-.0183-.1978-.0535-.0599-.0353-.1092-.0859-.1426-.1467l-9.453-18.014c-.0387-.0937-.0387-.1988 0-.2925.0151-.0506.0408-.0974.0755-.1372s.0775-.0718.1257-.0938l66.0319-34.3191c.092-.044.199-.051.297-.0195.097.0315.179.0991.229.1889l9.453 18.014c.044.0924.051.1981.019.2955-.031.0973-.099.1789-.19.228l-66.1239 34.3037zm-8.927-18.2296 9.0508 17.3366 65.4279-33.965-9.097-17.3366z" fill="#3d3dff"/><path d="m104.296 19.7162-6.2997-12.01161-84.489 43.88181 6.2993 12.0116z" fill="#00ffac"/><path d="m19.8038 63.9794c-.0695.0002-.1379-.0183-.1978-.0535s-.1091-.0859-.1425-.1466l-6.2969-12.0094c-.0245-.0445-.0399-.0933-.0454-.1437s-.0009-.1014.0135-.15c.0144-.0487.0383-.094.0703-.1334.032-.0395.0716-.0722.1164-.0964l84.5043-43.8804c.0465-.01991.0965-.03018.147-.03018.0506 0 .1006.01027.147.03018.0911.03548.1674.1006.2166.18476l6.2967 12.02474c.024.0433.039.091.045.1402.005.0493 0 .0991-.014.1465-.015.0474-.038.0914-.07.1295-.032.038-.071.0693-.116.0919l-84.4885 43.8496zm-5.7708-12.2249 5.941 11.3781 83.793-43.5725-5.9413-11.33189z" fill="#3d3dff"/><path d="m104.293 19.7141-8.6488 27.4214 9.4378 18.0141 24.413 2.6174 5.771-18.2912-12.609-24.0187z" fill="#00ffac"/><path d="m129.758 68.1827-24.924-2.6636-9.6077-18.3528v-.1385l8.7727-27.714 18.89 5.897 12.795 24.2342zm-24.429-3.3872 23.888 2.5558 5.631-17.8293-12.377-23.7416-17.916-5.5736-8.4933 26.898z" fill="#3d3dff"/><path d="m97.9963 7.70471 18.3647 5.74299 6.297 12.0093-18.365-5.7429z" fill="#fff"/><path d="m122.672 25.842h-.124l-18.364-5.82c-.05-.0123-.096-.0352-.136-.0671s-.073-.072-.096-.1176l-6.297-12.0094c-.0453-.06282-.0697-.13821-.0697-.21555s.0244-.15274.0697-.21556c.0492-.05991.1153-.10371.1898-.12568s.154-.0211.228.00251l18.4112 5.80458c.093.0388.173.1028.232.1847l6.297 12.0248c.038.0626.058.1345.058.2078 0 .0734-.02.1452-.058.2079-.041.0494-.094.0879-.153.1121s-.124.0333-.188.0265zm-18.101-6.4512 17.312 5.4196-5.848-11.0394-17.266-5.41961z" fill="#3d3dff"/><path d="m45.0067 111.647 12.114-21.5857 47.9613-24.9118 24.414 2.6175z" fill="#00ffac"/><path d="m45.0067 112.032c-.0524 0-.1041-.012-.1519-.033-.0479-.021-.091-.052-.1266-.09-.0515-.063-.0796-.142-.0796-.223s.0281-.16.0796-.223l12.1141-21.5556c.0394-.0622.0922-.1148.1547-.154l47.961-24.9118c.071-.0159.145-.0159.217 0l24.398 2.6175c.083.0058.162.0393.224.0952.062.0558.103.1308.116.2127.016.0816.006.1662-.031.2412-.036.0749-.096.1361-.17.1745l-84.5351 43.8033c-.051.032-.1102.048-.1702.046zm12.3771-21.6781-11.4179 20.3541 82.2151-42.6947-22.975-2.4634z" fill="#3d3dff"/><path d="m19.8042 63.5945-6.2969-12.0094-5.77077 18.2758 6.29687 12.0094z" fill="#fff"/><path d="m14.0337 82.2552c-.0696.0002-.138-.0183-.1979-.0535-.0599-.0353-.1091-.0859-.1425-.1467l-6.29684-12.0093c-.03868-.0938-.03868-.1989 0-.2926l5.73984-18.2912c.026-.0712.0718-.1336.1321-.1799.0603-.0464.1325-.0747.2083-.0818.075-.0082.1507.0066.217.0424.0664.0358.1202.0908.1543.1577l6.2659 12.0248c.02.0462.0303.096.0303.1463s-.0103.1-.0303.1462l-5.7089 18.2758c-.0244.0723-.0697.1358-.1303.1824-.0606.0465-.1337.0742-.2101.0794zm-5.87914-12.4251 5.77084 11.0394 5.4459-17.2442-5.7708-11.0394z" fill="#3d3dff"/><path d="m105.082 65.1496 24.414 2.602 5.771-18.2912-6.297-12.0094c.447 6.6013-1.612 13.129-5.771 18.2913-2.248 2.678-5.006 4.8877-8.115 6.5021s-6.508 2.6017-10.002 2.9052z" fill="#fff"/><path d="m129.496 68.1519-24.445-2.6174c-.097-.0078-.187-.0517-.253-.1231-.066-.0713-.103-.1649-.103-.2618.006-.095.045-.1851.11-.2552.065-.07.152-.1158.246-.1297 6.941-.6063 13.357-3.9288 17.839-9.238 4.108-5.0775 6.141-11.5103 5.693-18.0141-.007-.0884.017-.1766.068-.2495.05-.073.125-.1262.211-.1508.086-.0236.178-.0165.26.02s.148.1002.188.1802l6.297 11.9631c.039.0938.039.1989 0 .2926l-5.74 18.3066c-.025.0787-.075.1476-.141.1972-.067.0496-.147.0776-.23.0799zm-21.35-3.0793 21.071 2.2633 5.632-17.8293-5.43-10.3619c.077 6.1212-2.012 12.0745-5.901 16.8175s-9.331 7.9735-15.372 9.1258z" fill="#3d3dff"/><path d="m108.73 40.0551c2.199.0696 4.037-1.649 4.107-3.8385.069-2.1895-1.657-4.0209-3.856-4.0906-2.199-.0696-4.037 1.649-4.107 3.8385-.069 2.1896 1.657 4.021 3.856 4.0906z" fill="#fff"/><path clip-rule="evenodd" d="m108.752 39.3554c1.815.0575 3.328-1.3605 3.385-3.1609.057-1.8005-1.363-3.3113-3.178-3.3688s-3.328 1.3606-3.385 3.161 1.363 3.3113 3.178 3.3687zm4.085-3.1388c-.07 2.1895-1.908 3.9081-4.107 3.8385s-3.925-1.901-3.856-4.0906c.07-2.1895 1.908-3.9081 4.107-3.8385 2.199.0697 3.925 1.9011 3.856 4.0906z" fill="#3d3dff" fill-rule="evenodd"/><path d="m116.361 13.4477-12.068 6.2664-6.2967-12.00939z" fill="#00ffac"/><path d="m104.292 20.0991c-.069.0002-.138-.0183-.198-.0535-.059-.0353-.109-.0859-.142-.1467l-6.297-12.00936c-.0453-.06281-.0697-.13821-.0697-.21555s.0244-.15273.0697-.21555c.0492-.05992.1153-.10372.1898-.12569s.154-.02109.228.00252l18.4112 5.74293c.072.0242.136.0693.183.1296s.074.1331.08.2091c.01.0749-.004.1512-.04.2177s-.093.1197-.161.1519l-12.068 6.2356c-.055.0403-.118.0668-.186.077zm-5.523-11.74766 5.693 10.77766 10.83-5.6506z" fill="#3d3dff"/><path d="m19.8038 63.5945-6.2968-12.0093 36.2029-18.7993c-12.1069 7.9701-22.3143 18.4804-29.9061 30.7933z" fill="#fff"/><path d="m19.8043 63.9794c-.0676.0008-.1342-.0176-.1917-.053-.0575-.0355-.1037-.0865-.1332-.1472l-6.2968-12.0094c-.0245-.0444-.0399-.0932-.0454-.1436-.0055-.0505-.0009-.1014.0135-.1501.0143-.0486.0382-.094.0703-.1334.032-.0394.0715-.0722.1163-.0963l36.172-18.8147c.0887-.0445.1911-.0533.2862-.0247.095.0287.1754.0927.2243.1786.0254.0415.0424.0875.0499.1355.0076.0479.0055.0969-.006.1441-.0114.0472-.0322.0917-.0609.1309-.0288.0392-.0651.0724-.1067.0976-7.8039 5.1521-14.8402 11.3718-20.9018 18.476-3.2725 3.841-6.2415 7.9282-8.8805 12.2249-.029.0566-.0734.1039-.1281.1366-.0547.0326-.1176.0493-.1814.0482zm-5.7708-12.2249 5.8018 11.0701c2.5696-4.1234 5.445-8.0502 8.602-11.7476 4.8464-5.6902 10.3217-10.8189 16.3223-15.2889z" fill="#3d3dff"/><path d="m57.121 90.0613-9.453-18.014 47.9611-24.9118c-10.5732 5.0414-19.8217 12.4635-27.0129 21.6785-4.9684 6.4125-8.8512 13.5894-11.4952 21.2473z" fill="#fff"/><path d="m57.1213 90.4462c-.0696.0002-.1379-.0183-.1978-.0535s-.1092-.0859-.1426-.1466l-9.453-18.0141c-.0387-.0937-.0387-.1988 0-.2925.0151-.0506.0408-.0973.0755-.1372.0347-.0398.0775-.0718.1257-.0938l43.4744-22.6022c1.4543-.8161 2.955-1.5397 4.4712-2.3095.087-.0253.1801-.0193.2631.0167.083.0361.1507.1.1912.1806.0405.0807.0513.1729.0305.2606-.0209.0878-.0719.1654-.1444.2195l-4.4403 2.3095c-8.6937 4.8735-16.3252 11.4212-22.4489 19.2612-4.9476 6.3766-8.81 13.518-11.4333 21.1396-.026.0712-.0718.1336-.1321.1799-.0602.0464-.1325.0747-.2083.0818zm-8.927-18.2296 8.8496 16.9363c5.0645-14.2166 14.3635-26.559 26.6571-35.3815z" fill="#3d3dff"/><path d="m105.082 65.1496-6.2964-12.0093-5.7708 18.2758z" fill="#fff"/><path d="m93.0146 71.8009c-.0882-.0017-.1741-.0284-.2476-.077-.0602-.0489-.1042-.1147-.1262-.1888-.0221-.0742-.0212-.1532.0025-.2269l5.7708-18.2758c.0236-.0741.0683-.1397.1287-.189.0605-.0492.134-.0798.2117-.0881.0767-.0069.1536.0102.2201.0488.0666.0386.1194.0969.1512.1667l6.3122 12.0094c.044.0924.051.1981.02.2954-.032.0974-.1.179-.19.2281l-12.0678 6.2664c-.0583.0253-.1221.0359-.1856.0308zm5.8636-17.6599-5.2138 16.5052 10.9076-5.6506z" fill="#3d3dff"/><path d="m57.1205 90.0613-33.6346 9.8384 3.1406 6.0043 18.38 5.743z" fill="#fff"/><path d="m45.007 112.032h-.1392l-18.349-5.789c-.1001-.035-.183-.106-.2321-.2l-3.0787-5.958c-.0271-.05-.0413-.1057-.0413-.1621 0-.0565.0142-.1121.0413-.1617.0228-.0518.0568-.098.0996-.1353.0427-.0372.0933-.0646.1479-.0803l33.6347-9.8384c.0755-.0247.1568-.0256.2328-.0027.0761.023.1432.0687.1922.131.049.0622.0776.138.0818.217.0043.0789-.0161.1573-.0582.2244l-12.1295 21.5551c-.0358.073-.0946.132-.1672.168-.0727.036-.1552.047-.2351.032zm-18.1014-6.451 17.9622 5.605 11.4952-20.478-32.3196 9.377z" fill="#3d3dff"/><path d="m28.994 66.4737-12.0676 6.2664 2.8777-9.1456z" fill="#fff"/><path d="m16.9261 73.1251c-.0913.002-.18-.0311-.2475-.0924-.0602-.0489-.1042-.1147-.1263-.1889-.0221-.0741-.0212-.1532.0025-.2268l2.8777-9.1302c.0141-.0503.0383-.0972.0711-.1379.0329-.0406.0737-.0742.12-.0987s.0972-.0393.1494-.0437c.0523-.0043.1049.002.1546.0185l9.1745 2.8792c.0732.0206.1387.0623.1883.1198.0495.0576.0809.1283.0902.2035.0038.0779-.0145.1554-.0528.2234-.0383.0681-.0951.1241-.1638.1615l-12.0677 6.2665c-.051.0315-.1101.0475-.1702.0462zm3.0943-9.0533-2.4754 7.8985 10.4122-5.4196z" fill="#3d3dff"/></svg>