<svg fill="none" height="141" viewBox="0 0 193 141" width="193" xmlns="http://www.w3.org/2000/svg"><path d="m165.729 22.5661-20.799-4.8183-89.3816 49.36c-.2982-.5362-.7975-.9322-1.3879-1.1007-.5905-.1685-1.2237-.0958-1.7605.2021s-.9332.7966-1.1019 1.3864-.0959 1.2224.2023 1.7586l-12.1906 6.7239c-.2982-.5362-.7975-.9321-1.3879-1.1007-.5905-.1685-1.2237-.0958-1.7605.2021s-.9332.7966-1.1019 1.3864-.0959 1.2224.2023 1.7586l-13.4934 7.4675c-.9.4865-1.6947 1.1461-2.3383 1.9407-.6436.7947-1.1234 1.7087-1.4118 2.6895-.2883.9807-.3795 2.0088-.2682 3.0249.1112 1.0161.4227 2.0002.9164 2.8955l12.6869 22.8984c.4869.901 1.1479 1.697 1.9446 2.341s1.7134 1.124 2.6971 1.412c.9836.289 2.0147.379 3.0336.267 1.0188-.113 2.0053-.426 2.9023-.921l13.4778-7.468c.2962.538.7943.937 1.3847 1.108.5905.172 1.2249.102 1.7638-.194.5388-.296.938-.793 1.1096-1.383s.1016-1.224-.1946-1.762l12.1751-6.739c.1366.286.3303.541.5693.75.239.208.5183.366.8205.463s.6211.131.937.1.6221-.126.8998-.28c.2777-.153.521-.362.715-.613s.3345-.539.4128-.846c.0784-.307.0931-.627.043-.941-.05-.313-.1636-.612-.3339-.88l89.3821-49.4217 6.995-20.2336c-.348-.1753-.685-.3719-1.008-.5887.323.2168.66.4134 1.008.5887l3.195-9.2956zm1.396 6.6928c.17.3099.356.5888.543.8676-.187-.2788-.373-.5577-.543-.8676zm.713 1.1155c.14.2014.295.3873.434.5732-.077-.1859-.294-.3718-.434-.5732zm.636.8211.496.5423zm.682.7282.698.6352zm.729.6507c.307.256.628.494.962.7127-.334-.2187-.655-.4567-.962-.7127z" fill="#fff"/><path d="m38.2394 131c-2.7768-.01-5.5011-.756-7.8939-2.164-2.3928-1.407-4.3681-3.425-5.7235-5.846l-12.6714-22.898c-.9905-1.7817-1.6194-3.741-1.8506-5.7658-.23129-2.0248-.0604-4.0753.503-6.034.5633-1.9587 1.5079-3.7871 2.7798-5.3806 1.2719-1.5934 2.8459-2.9205 4.6321-3.9053l9.8951-5.4845c.8658-2.1739 2.4602-3.9802 4.511-5.1105 2.0508-1.1302 4.4308-1.5143 6.7335-1.0866l4.9631-2.7577c.8638-2.1788 2.4602-3.9891 4.515-5.12s4.4397-1.5117 6.745-1.0771l85.7064-47.4079c1.678-.9239 3.64-1.19434 5.506-.7591l20.891 4.8182 9.508 2.2c1.06.2444 2.057.709 2.926 1.3636s1.59 1.4845 2.116 2.4358c.527.9513.847 2.0026.941 3.0857.093 1.0831-.043 2.1736-.4 3.2007l-3.102 9.2027-6.995 20.2336c-.631 1.8107-1.906 3.3268-3.582 4.2605l-85.7842 47.3923c-.8584 2.179-2.4515 3.991-4.5043 5.123-2.0529 1.131-4.4368 1.511-6.7402 1.074l-4.9786 2.773c-.859 2.179-2.4489 3.991-4.4978 5.128-2.0529 1.155-4.4507 1.539-6.7622 1.085l-9.8796 5.469c-2.2937 1.282-4.8784 1.954-7.5067 1.952zm2.6367-47.3304c-.5443.571-1.1718 1.0568-1.8612 1.4408l-13.5089 7.452 12.6714 22.9296 13.5244-7.452c.6902-.38 1.4322-.656 2.2024-.821.5471-.564 1.1742-1.044 1.8611-1.426l12.1751-6.7236c.6934-.3709 1.4424-.6273 2.2179-.7592.5358-.6161 1.1699-1.1396 1.8766-1.5492l86.6681-47.8572 4.234-12.2703-.341-.4028-.171-.1859c-.048-.0739-.106-.1416-.171-.2014-.248-.3099-.496-.6352-.729-.976l-.093-.0775-.186-.2789c-.325-.4648-.62-.945-.899-1.4408-.635-1.1482-.971-2.4374-.977-3.7493v-.2633l-13.37-3.0986-86.6985 47.9347c-.685.3751-1.422.6466-2.1868.8056-.5445.5666-1.1721 1.0472-1.8612 1.4253l-12.1751 6.6929c-.6862.3947-1.429.682-2.2023.8521z" fill="#fff"/><path d="m55.4707 114.81c.2946.527.7843.918 1.3642 1.089s1.2037.108 1.7377-.175c.528-.294.9195-.783 1.0906-1.363.1711-.579.108-1.202-.1755-1.736l12.1751-6.739c.1365.286.3303.542.5693.75.239.209.5182.366.8205.463.3022.097.6211.131.937.1.3158-.031.6221-.126.8998-.279.2777-.154.521-.363.7149-.614.194-.251.3345-.539.4129-.846s.093-.627.043-.94-.1637-.613-.3339-.88l-20.1625-36.4858c-.2983-.5362-.7975-.9321-1.388-1.1006-.5904-.1685-1.2237-.0958-1.7605.2021s-.9331.7966-1.1018 1.3864-.096 1.2224.2022 1.7586l-12.206 6.6774c-.2972-.5248-.7881-.9125-1.3678-1.0805-.5796-.1679-1.2021-.1026-1.7342.1819-.5253.2968-.9135.7872-1.0816 1.3662-.1681.5791-.1027 1.2008.1821 1.7323l20.1625 36.486z" fill="#00ffab"/><path d="m57.5025 116.406c-.2516-.006-.5016-.042-.7444-.109-.6608-.218-1.2147-.677-1.551-1.286l-20.1625-36.5005c-.1743-.3078-.2846-.6475-.3246-.9989-.04-.3513-.0087-.7071.0919-1.0462.1512-.4581.4221-.8677.7847-1.1864.3625-.3187.8037-.535 1.2778-.6266.4742-.0916.9643-.0551 1.4196.1057.4554.1607.8595.4399 1.1708.8088l11.5392-6.3831c-.1868-.5527-.1868-1.1514 0-1.7042.2067-.6663.6697-1.2235 1.2873-1.5493.3104-.1726.6519-.2823 1.0049-.3228.353-.0404.7105-.0109 1.052.087s.6603.2622.9382.4834c.2778.2213.5091.4952.6807.806l20.1625 36.4851c.3383.632.4215 1.37.2326 2.061-.2119.668-.6804 1.225-1.3028 1.549-.3078.175-.6479.286-.9998.326s-.7082.008-1.0474-.093c-.5657-.152-1.0632-.491-1.4114-.961l-11.5547 6.383c.211.544.2382 1.143.0776 1.704-.2183.66-.6781 1.214-1.2873 1.55-.4033.247-.8615.39-1.3339.418zm-20.1625-41.1335c-.3308.0051-.6554.0901-.9461.2479-.2218.1199-.4172.2832-.5744.4801-.1572.197-.2731.4236-.3407.6663-.1389.494-.0776 1.0227.1706 1.4719l20.1626 36.4853c.1229.224.289.421.4886.581.1997.16.4289.278.6746.349.2422.069.4958.089.746.06s.4922-.108.7119-.231c.2241-.123.4218-.288.5815-.488.1597-.199.2783-.428.3491-.674.0692-.242.0898-.495.0605-.745s-.1078-.492-.2311-.711c-.0246-.045-.0401-.094-.0456-.145-.0055-.05-.0009-.102.0135-.151s.0384-.094.0705-.134c.0321-.039.0718-.072.1167-.097l12.175-6.739c.0944-.039.2003-.039.2947 0 .0985.03.1817.096.2327.186.2485.446.6633.776 1.1542.918.4908.142 1.018.085 1.4669-.159.4494-.252.7831-.669.9306-1.162.1389-.494.0777-1.023-.1706-1.472l-20.2246-36.4853c-.1838-.3341-.4629-.606-.8018-.7811-.339-.1752-.7224-.2456-1.1016-.2024-.3791.0432-.7368.198-1.0276.4449s-.5014.5746-.6052.9414c-.1437.4919-.088 1.0206.1551 1.4718.0509.0885.0648.1934.0386.2921-.0261.0986-.0902.1829-.1782.2347l-12.2216 6.6929c-.0442.0267-.0935.044-.1448.0506-.0513.0067-.1034.0026-.153-.012-.0497-.0145-.0957-.0393-.1352-.0726-.0395-.0334-.0716-.0745-.0943-.121-.1232-.222-.2895-.4173-.4893-.5743-.1997-.157-.4289-.2725-.6739-.3397-.1567-.0447-.3181-.0707-.4808-.0775z" fill="#3d3dff"/><path d="m144.852 17.7553-89.2929 49.3604 20.2162 36.4913 89.2927-49.3602z" fill="#ffff58"/><path d="m75.7724 103.981h-.1085c-.0513-.009-.0995-.031-.1402-.064-.0406-.032-.0724-.074-.0925-.122l-20.2245-36.4703c-.0457-.0911-.055-.1961-.0263-.2939.0288-.0977.0936-.1809.1814-.2329l89.2892-49.3909c.094-.0388.2-.0388.294 0 .05.0124.097.0354.137.0675s.073.0725.096.1184l20.163 36.4855c.024.0447.04.0938.045.1446.006.0507.001.102-.013.1509-.015.049-.039.0946-.071.1343s-.072.0726-.117.0969l-89.2264 49.3289zm-19.6972-36.6563 19.8368 35.7413 88.622-48.9876-19.837-35.8038z" fill="#3d3dff"/><path d="m41.9924 122.278 13.4778-7.468-20.1625-36.4854-13.4934 7.4675c-.9.4864-1.6947 1.146-2.3383 1.9407-.6436.7946-1.1234 1.7087-1.4118 2.6894-.2883.9808-.3795 2.0089-.2682 3.025.1112 1.0161.4227 2.0002.9164 2.8955l12.6869 22.8983c.4922.898 1.1577 1.689 1.958 2.329.8003.639 1.7195 1.114 2.7046 1.396.985.282 2.0163.367 3.0342.249s2.0023-.437 2.8963-.937z" fill="#ffceff"/><g fill="#3d3dff"><path d="m38.239 123.625c-1.461.004-2.8963-.383-4.1565-1.122-1.2602-.738-2.2993-1.801-3.009-3.076l-12.6868-22.8985c-.5187-.9368-.8475-1.9666-.9676-3.0304s-.0293-2.1408.2675-3.1695c.2967-1.0287.7934-1.989 1.4617-2.8258.6683-.8369 1.4952-1.5341 2.4333-2.0516l13.4934-7.4676c.0944-.0387.2003-.0387.2947 0 .0964.0338.1785.0994.2326.186l20.1626 36.4854c.0387.094.0387.2 0 .294-.0125.05-.0355.097-.0676.137-.0322.04-.0726.073-.1185.096l-13.4779 7.467c-1.1877.637-2.514.972-3.8619.976zm-3.1019-44.7738-13.1832 7.2662c-1.7113.953-2.9754 2.5439-3.516 4.4251-.5405 1.8812-.3136 3.8996.6312 5.6142l12.6403 22.8983c.4695.847 1.1014 1.594 1.8598 2.198.7583.603 1.6283 1.051 2.5601 1.319s1.9073.349 2.8707.24 1.8959-.406 2.7442-.875l13.2297-7.266z"/><path d="m133.081 35.2236c-.069.0035-.137-.0121-.197-.0449s-.11-.0816-.145-.141c-.026-.0442-.044-.0934-.05-.1447-.007-.0512-.003-.1032.012-.1528.014-.0496.039-.0955.072-.135.034-.0395.075-.0716.121-.0942l8.143-4.5084c.045-.0246.094-.04.145-.0455s.102-.0009.151.0135.095.0383.134.0704c.04.0321.073.0717.097.1165.046.0911.055.1961.027.2939-.029.0977-.094.1809-.182.2329l-8.142 4.4929c-.058.0296-.122.0455-.186.0464z"/><path d="m81.1695 63.9318c-.0865.0005-.1706-.028-.2391-.0808-.0684-.0528-.1172-.127-.1386-.2107s-.0141-.1721.0206-.2512c.0347-.0792.0949-.1444.171-.1854l12.966-7.1732c.0905-.0514.1977-.0647.2981-.0371.1003.0276.1856.0939.237.1843s.0648.1975.0372.2977c-.0277.1003-.094.1854-.1845.2368l-12.9971 7.1731zm25.9475-14.3463c-.069-.0014-.137-.0206-.197-.0559s-.109-.0854-.144-.1455c-.046-.0911-.055-.1961-.026-.2938.028-.0978.093-.181.181-.2329l12.982-7.1732c.043-.0357.095-.0613.15-.0752.054-.0138.112-.0154.167-.0048.056.0106.108.0333.154.0664s.084.0759.112.1252c.027.0494.044.1042.048.1606s-.004.113-.024.1659c-.02.0528-.052.1006-.092.14-.041.0395-.09.0695-.143.0881l-12.982 7.1886c-.057.0297-.121.0456-.186.0465z"/><path d="m60.0462 75.6133c-.0694-.0014-.1373-.0206-.1971-.0559-.0597-.0353-.1094-.0854-.1441-.1455-.0245-.0447-.04-.0939-.0455-.1446s-.0009-.102.0135-.151c.0144-.0489.0383-.0945.0705-.1342.0321-.0397.0717-.0726.1166-.0969l8.1426-4.462c.0448-.0245.0939-.04.1447-.0455s.1022-.0009.1512.0135.0946.0383.1344.0704c.0397.0321.0727.0717.097.1166.0456.0911.055.1961.0262.2938-.0288.0978-.0935.181-.1813.2329l-8.1426 4.4929c-.0587.0252-.124.0306-.1861.0155z"/><path d="m144.309 55.5037c-.069-.0014-.137-.0206-.197-.0559-.059-.0353-.109-.0854-.144-.1455-.024-.0447-.04-.0938-.045-.1446-.006-.0507-.001-.102.013-.1509.015-.049.039-.0946.071-.1343s.071-.0726.116-.0969l8.143-4.4929c.088-.0508.193-.0647.292-.0386s.183.0901.235.178c.046.0911.055.1961.026.2939-.028.0977-.093.1809-.181.2329l-8.142 4.5084c-.058.0296-.122.0455-.187.0464z"/><path d="m92.3988 84.1963c-.0705.0039-.1405-.0132-.2012-.049-.0607-.0359-.1095-.0889-.14-.1524-.0246-.0448-.0401-.0939-.0456-.1446s-.0009-.1021.0135-.151c.0144-.049.0384-.0946.0705-.1342.0321-.0397.0718-.0727.1167-.097l12.9663-7.1731c.044-.0246.094-.04.144-.0455.051-.0055.103-.0009.152.0135s.094.0383.134.0704c.04.032.073.0716.097.1165.051.0885.065.1934.039.292-.026.0987-.091.183-.179.2347l-12.9811 7.1732c-.0576.0297-.1213.0456-.1861.0465zm25.9472-14.3463c-.069-.0028-.136-.0227-.196-.0579-.059-.0351-.109-.0844-.145-.1435-.045-.0912-.055-.1962-.026-.2939s.094-.181.181-.2329l12.982-7.1731c.045-.0245.094-.0398.145-.0452.05-.0055.102-.0009.151.0135s.094.0383.134.0703.073.0715.097.1163c.025.0447.04.0939.045.1446.006.0507.001.1019-.013.1508-.015.049-.038.0946-.071.1342-.032.0397-.071.0727-.116.0971l-12.95 7.1732c-.066.0372-.142.0534-.218.0465z"/><path d="m71.2752 95.8778c-.0694-.0014-.1373-.0206-.1971-.0559-.0597-.0353-.1094-.0854-.1441-.1455-.0245-.0447-.04-.0939-.0455-.1446s-.0009-.102.0135-.151c.0144-.0489.0383-.0945.0705-.1342.0321-.0397.0717-.0726.1166-.0969l8.1426-4.493c.0439-.0356.0951-.0613.1499-.0751.0549-.0138.1122-.0155.1678-.0049.0556.0107.1082.0334.1541.0665.0458.0331.0839.0758.1115.1252.0276.0493.044.1042.0481.1606.0042.0563-.0041.113-.0243.1658-.0201.0529-.0515.1007-.0921.1401s-.0893.0694-.1428.088l-8.1426 4.5084c-.0576.0297-.1213.0456-.1861.0465z"/><path d="m64.9781 94.0651c-.0697.0002-.1382-.0184-.1983-.0538-.06-.0355-.1094-.0864-.1429-.1476l-4.5133-8.1337c-.0244-.0447-.0398-.0938-.0452-.1445-.0055-.0507-.0008-.102.0136-.1509s.0383-.0945.0703-.1342c.0321-.0397.0716-.0727.1164-.0971s.094-.0398.1448-.0452c.0507-.0054.102-.0008.151.0136.049.0143.0946.0382.1344.0702.0397.032.0727.0716.0972.1163l4.4977 8.1337c.0509.0885.0648.1934.0387.292-.0262.0987-.0902.183-.1782.2348-.0576.0296-.1213.0455-.1862.0464z"/><path d="m58.2468 81.9344c-.0694-.0013-.1373-.0206-.1971-.0559s-.1094-.0854-.1441-.1455l-4.4823-8.1337c-.0274-.0432-.0455-.0916-.0533-.1422-.0077-.0505-.005-.1021.0081-.1515.0131-.0495.0363-.0957.0681-.1358s.0715-.0732.1167-.0972c.0442-.0268.0935-.044.1448-.0507s.1034-.0026.153.012.0957.0393.1352.0727c.0395.0333.0716.0745.0943.1209l4.5133 8.1337c.0456.0911.055.1961.0262.2939-.0288.0977-.0936.1809-.1813.2329-.0623.0321-.1316.048-.2016.0464z"/><path d="m57.2854 108.907c-.0694-.001-.1373-.02-.1971-.056-.0598-.035-.1094-.085-.1441-.145l-4.4978-8.134c-.0357-.044-.0614-.095-.0753-.15-.0138-.054-.0155-.112-.0048-.167.0107-.056.0333-.108.0665-.154.0331-.046.0759-.084.1253-.1115.0495-.0275.1043-.0439.1608-.048.0564-.0042.1131.0041.166.0242s.1008.0513.1403.0923c.0394.04.0695.089.0881.142l4.5133 8.134c.0246.045.04.094.0455.145.0055.05.0009.102-.0135.151s-.0383.094-.0704.134c-.0322.04-.0718.073-.1167.097z"/><path d="m46.0719 88.6583c-.0694-.0014-.1373-.0207-.1971-.056-.0597-.0353-.1094-.0854-.1441-.1454l-4.5133-8.1337c-.0456-.0912-.055-.1962-.0262-.2939.0288-.0978.0936-.181.1813-.2329.0448-.0245.094-.04.1448-.0455.0507-.0055.1021-.0009.1511.0135s.0947.0383.1344.0704.0727.0717.097.1165l4.5133 8.1337c.0457.0912.055.1962.0263.2939-.0288.0977-.0936.181-.1814.2329z"/></g><path d="m62.2483 105.452c1.2849 0 2.3265-1.04 2.3265-2.324 0-1.283-1.0416-2.323-2.3265-2.323-1.2848 0-2.3264 1.04-2.3264 2.323 0 1.284 1.0416 2.324 2.3264 2.324z" fill="#00ffab"/><path d="m62.2484 105.824c-.251-.001-.501-.032-.7444-.093-.6807-.182-1.2643-.621-1.6286-1.224-.1806-.319-.2956-.671-.3382-1.036-.0426-.364-.012-.734.0901-1.086.2016-.693.6701-1.278 1.3028-1.627.3082-.174.6482-.284 1-.324.3517-.04.7079-.009 1.0473.092.6638.212 1.2196.673 1.5509 1.286.1747.31.2853.652.3252 1.006.04.354.0085.713-.0925 1.054-.2127.663-.674 1.218-1.2873 1.549-.3709.229-.7907.367-1.2253.403zm0-4.648c-.3258.005-.6454.091-.9306.248-.4465.249-.7769.663-.9193 1.153-.1423.491-.085 1.017.1594 1.466.2522.448.6694.782 1.1632.929.4945.139 1.0238.078 1.4734-.17.4439-.251.771-.667.9104-1.157.1393-.49.0797-1.015-.1659-1.462-.1177-.225-.2802-.423-.4776-.583s-.4254-.278-.6701-.346c-.1777-.043-.3601-.064-.5429-.062z" fill="#3d3dff"/><path d="m57.7664 97.3342c1.2848 0 2.3264-1.0404 2.3264-2.3239 0-1.2834-1.0416-2.3239-2.3264-2.3239-1.2849 0-2.3265 1.0405-2.3265 2.3239 0 1.2835 1.0416 2.3239 2.3265 2.3239z" fill="#00ffab"/><path d="m57.766 97.7215c-.2573.0019-.5135-.0346-.76-.1085-.5991-.1737-1.1195-.5494-1.4726-1.0632-.3531-.5137-.5171-1.1338-.4641-1.7548.0531-.6209.3198-1.2043.7549-1.6509.4351-.4467 1.0117-.7289 1.6316-.7987.6199-.0699 1.245.077 1.7687.4156.5238.3386.9139.848 1.104 1.4415.1902.5936.1686 1.2346-.0611 1.814s-.6532 1.0615-1.1986 1.3641c-.3966.2264-.846.344-1.3028.3409zm0-4.6479c-.3244.0016-.6436.0813-.9306.2324-.448.2509-.7781.6692-.9177 1.1631-.1396.4938-.0773 1.0227.1733 1.4707.12.2216.2835.4167.4807.5738.1971.157.424.2728.667.3403.2362.0862.4877.1225.7387.1065s.4959-.0839.7192-.1995c.3783-.2048.6769-.5305.8481-.9249.1711-.3944.2049-.8347.0959-1.2506-.109-.4158-.3544-.7831-.6971-1.0432-.3427-.26-.7627-.3977-1.193-.3911z" fill="#3d3dff"/><path d="m53.2683 89.2314c1.2849 0 2.3265-1.0404 2.3265-2.3239 0-1.2834-1.0416-2.3239-2.3265-2.3239-1.2848 0-2.3264 1.0405-2.3264 2.3239 0 1.2835 1.0416 2.3239 2.3264 2.3239z" fill="#00ffab"/><path d="m53.268 89.6187c-.661.0036-1.3007-.2339-1.7989-.668s-.8206-1.0349-.9068-1.6896c-.0863-.6547.0697-1.3183.4385-1.8663.3689-.548.9253-.9427 1.5648-1.11.6395-.1674 1.3181-.0958 1.9086.2013.5904.297 1.052.7991 1.2981 1.412s.2599 1.2944.0387 1.9167-.6622 1.1425-1.2402 1.4631c-.3966.2263-.846.3439-1.3028.3408zm0-4.6478c-.4218.0108-.8284.1599-1.1571.4243-.3286.2644-.5611.6294-.6616 1.0388-.1004.4094-.0633.8405.1057 1.2267.169.3863.4605.7063.8295.9107.3691.2045.7952.282 1.2127.2206s.8032-.2582 1.0976-.5601c.2945-.302.4814-.6923.5318-1.1108.0505-.4185-.0383-.842-.2525-1.2052-.2523-.4489-.6694-.7822-1.1632-.9295-.1802-.0241-.3627-.0241-.5429 0z" fill="#3d3dff"/><path d="m48.7703 81.1288c1.2849 0 2.3264-1.0405 2.3264-2.3239 0-1.2835-1.0415-2.3239-2.3264-2.3239s-2.3265 1.0404-2.3265 2.3239c0 1.2834 1.0416 2.3239 2.3265 2.3239z" fill="#00ffab"/><path d="m48.7704 81.5005c-.2574.0032-.5138-.0333-.76-.1084-.3318-.0991-.6402-.2641-.9067-.4851-.2665-.2209-.4856-.4933-.6443-.8008-.1721-.3103-.2813-.6514-.3215-1.0038-.0401-.3525-.0104-.7093.0876-1.0503.0979-.341.2621-.6593.4832-.9369.2211-.2775.4948-.5089.8054-.6808s.6521-.281 1.0049-.3211.7101-.0104 1.0514.0874.66.2619.9379.4827c.2779.2209.5095.4942.6816.8045.1746.3105.2852.6528.3252 1.0067.0399.354.0085.7123-.0926 1.0538-.2068.6664-.6697 1.2236-1.2873 1.5493-.4084.259-.8812.3985-1.3648.4028zm0-4.6478c-.3266-.0004-.6476.0851-.9306.2479-.4466.2482-.777.6626-.9193 1.1529-.1423.4904-.0851 1.017.1593 1.4654.1232.222.2895.4173.4893.5743.1997.157.4289.2725.6739.3397.2434.0746.4994.0992.7526.0726.2531-.0266.4983-.104.7209-.2275.2223-.123.4177-.2892.5749-.4887.1571-.1995.2728-.4284.3401-.6732.0796-.2561.1056-.5259.0762-.7924-.0293-.2666-.1133-.5242-.2468-.7569-.1775-.2854-.4273-.5188-.7242-.6766s-.6303-.2344-.9663-.222z" fill="#3d3dff"/><path d="m82.8109 81.3058 2.7819-1.5378c2.3084-1.276 3.1458-4.1767 1.8704-6.4788-1.2753-2.3021-4.1805-3.1339-6.4889-1.8578l-2.7819 1.5378c-2.3083 1.276-3.1457 4.1767-1.8704 6.4788 1.2754 2.3021 4.1806 3.1339 6.4889 1.8578z" fill="#00ffab"/><path d="m80.5035 82.3062c-.9145.008-1.8147-.2275-2.6079-.6822-.7933-.4548-1.4509-1.1123-1.9054-1.9051-.3291-.5918-.538-1.2426-.6148-1.9152-.0767-.6726-.0198-1.3537.1675-2.0043s.5013-1.2578.9241-1.7869c.4227-.5291.9459-.9696 1.5394-1.2963l2.7763-1.5493c.5941-.3561 1.2539-.589 1.9401-.6851.6862-.096 1.3847-.0532 2.0539.126.6693.1792 1.2956.4911 1.8417.9171s1.0008.9574 1.337 1.5626c.3362.6051.5471 1.2717.6201 1.96s.0066 1.3842-.1952 2.0463c-.2019.6621-.535 1.2769-.9796 1.8077s-.9916.9669-1.6084 1.2822l-2.7918 1.5492c-.7697.4008-1.6293.5981-2.497.5733zm2.7762-11.0773c-.7375.0015-1.4627.1879-2.1093.5422l-2.7917 1.5493c-.5031.2787-.9463.6537-1.3043 1.1035s-.6238.9657-.7822 1.5181c-.1585.5525-.2064 1.1307-.1411 1.7016.0653.571.2425 1.1235.5215 1.626s.6544.9452 1.1047 1.3029c.4504.3576.9668.6231 1.5198.7813.5531.1583 1.1319.2062 1.7034.141.5716-.0652 1.1247-.2423 1.6278-.521l2.7762-1.5493c.7509-.4268 1.3589-1.0655 1.748-1.8361.389-.7705.5418-1.6386.4391-2.4955-.1027-.8568-.4562-1.6644-1.0163-2.3214-.5601-.6571-1.3019-1.1344-2.1324-1.3722-.3792-.1046-.7699-.1619-1.1632-.1704z" fill="#3d3dff"/><path d="m158.316 42.0715-.683 8.3196 7.46 3.8422 6.995-20.2336c-2.083-1.0491-3.802-2.7014-4.93-4.7412-1.129-2.0397-1.616-4.372-1.398-6.6924l-20.829-4.8183-.698 8.3196 7.429 3.8422-.682 8.3196z" fill="#ffd91d"/><path d="m165.092 54.6206c-.061.014-.124.014-.186 0l-7.444-3.8732c-.069-.0377-.126-.094-.164-.1625-.039-.0685-.057-.1464-.053-.2248l.667-8.0562-7.197-3.7183c-.067-.0384-.122-.0953-.158-.164s-.051-.1462-.044-.2233l.621-8.0563-7.197-3.7182c-.069-.0377-.125-.0941-.164-.1626-.038-.0684-.057-.1463-.053-.2248l.745-8.2886c.001-.0556.016-.1101.043-.1587s.065-.0898.112-.1202c.047-.0257.101-.0392.155-.0392s.107.0135.155.0392l20.891 4.8183c.092.022.173.0767.227.1536.054.077.078.1711.068.2647-.212 2.2395.258 4.4907 1.349 6.4589 1.09 1.9682 2.75 3.5617 4.762 4.572.085.0432.152.1152.189.2032.037.0879.041.1861.013.277l-6.995 20.2336c-.02.0534-.051.1019-.091.1421-.04.0401-.088.0709-.142.0903-.041-.0104-.079-.0318-.109-.062zm-7.025-4.4464 6.808 3.5168 6.732-19.5054c-2.007-1.0974-3.657-2.7454-4.757-4.7494-1.099-2.004-1.601-4.2803-1.447-6.5603l-20.163-4.6478-.636 7.6224 7.197 3.7183c.07.0318.129.0847.168.1513s.056.1437.049.2205l-.667 8.0718 7.196 3.7182c.069.0324.126.0859.162.1528.037.0669.051.1437.04.219z" fill="#3d3dff"/><path d="m107.149 63.436c-.336-.003-.669-.0499-.993-.1394-.101-.0288-.186-.0964-.237-.1879s-.063-.1995-.034-.3002c.029-.1006.096-.1857.188-.2366.092-.0508.2-.0632.3-.0345.365.1067.747.1403 1.125.0991.377-.0413.743-.1566 1.076-.3394s.626-.4295.863-.7259c.238-.2964.414-.6367.519-1.0014.127-.4641.345-.8985.642-1.278.296-.3795.664-.6966 1.084-.9328.42-.2363.882-.3871 1.361-.4438.478-.0566.963-.0179 1.426.1138.739.2105 1.531.12 2.202-.2518.672-.3717 1.168-.9943 1.381-1.7313.129-.4655.351-.9002.652-1.2782s.676-.6915 1.101-.9217c.854-.4635 1.856-.5747 2.791-.3099.365.104.747.1353 1.123.0919.377-.0434.741-.1605 1.073-.3447.331-.1842.623-.4318.858-.7287s.41-.6372.514-1.0016c.268-.9112.88-1.6831 1.706-2.1534.42-.2369.884-.3864 1.364-.4397.48-.0532.965-.0091 1.427.1298.735.2235 1.528.1487 2.207-.208.679-.3568 1.191-.9667 1.423-1.6976.132-.462.354-.8934.653-1.2696s.67-.6899 1.09-.9229c.421-.2331.883-.3811 1.361-.4356.478-.0544.962-.0142 1.425.1183.05.0123.097.0348.137.0662.041.0314.075.0709.1.116.025.0452.04.095.044.1463.005.0513-.001.103-.018.1517-.012.0483-.034.0935-.065.133-.03.0396-.068.0726-.112.0972-.043.0245-.091.0401-.14.0459-.05.0057-.1.0014-.148-.0127-.366-.1063-.749-.1394-1.127-.0971-.379.0422-.745.1589-1.078.3433-.333.1843-.626.4327-.863.7308-.236.2981-.411.6401-.515 1.0061-.27.9342-.9 1.7231-1.752 2.1936s-1.856.5842-2.792.3162c-.365-.1101-.748-.145-1.127-.1023-.378.0426-.744.1617-1.076.3502-.66.357-1.155.9572-1.38 1.6732-.27.9307-.898 1.7168-1.747 2.187-.848.4701-1.848.5862-2.782.3228-.738-.2067-1.528-.1178-2.202.2479-.334.1832-.628.431-.865.729-.237.2979-.412.6399-.515 1.0062-.271.9342-.901 1.7231-1.753 2.1936s-1.856.5843-2.792.3162c-.364-.104-.746-.1352-1.122-.0918-.377.0434-.742.1605-1.073.3447s-.623.4318-.858.7287c-.236.2969-.41.6372-.514 1.0015-.23.7579-.698 1.4217-1.335 1.8933-.636.4715-1.408.7257-2.201.725z" fill="#3d3dff"/><path d="m37.8982 118.916c1.2849 0 2.3265-1.041 2.3265-2.324 0-1.284-1.0416-2.324-2.3265-2.324-1.2848 0-2.3264 1.04-2.3264 2.324 0 1.283 1.0416 2.324 2.3264 2.324z" fill="#fff"/><path d="m37.9134 119.287c-.4806.007-.9543-.114-1.3721-.351-.4179-.237-.7648-.582-1.0048-.998s-.3645-.888-.3606-1.368.1361-.95.3829-1.362c.2467-.412.5992-.751 1.0209-.981.4216-.231.8972-.344 1.3776-.329.4804.014.9481.157 1.3548.413.4067.255.7377.615.9587 1.041.3456.63.4287 1.37.2312 2.06-.1974.691-.6595 1.275-1.2858 1.628-.4088.183-.8551.268-1.3028.247zm0-4.647c-.3269-.003-.6484.083-.9306.247-.2242.12-.4221.284-.5821.481-.16.198-.2789.425-.3497.669s-.0921.499-.0626.752c.0295.252.1092.496.2344.717.112.241.2726.457.4719.634s.4329.311.6863.394c.2534.082.5212.112.7865.086.2653-.025.5226-.105.7556-.234.2331-.13.437-.305.5989-.517.162-.211.2786-.454.3424-.712.0639-.259.0738-.528.029-.79-.0449-.263-.1434-.513-.2895-.736-.1231-.222-.2895-.417-.4892-.574-.1998-.157-.4289-.273-.674-.34-.1724-.043-.3496-.064-.5273-.062z" fill="#3d3dff"/><path d="m64.9781 93.6625c1.7774 3.2296 2.2026 7.0305 1.1825 10.5725s-3.4025 6.536-6.6264 8.329l12.175-6.74z" fill="#fff"/><path d="m59.534 112.966c-.0694-.001-.1373-.02-.1971-.056-.0597-.035-.1094-.085-.1441-.145-.0246-.045-.04-.094-.0455-.145-.0055-.05-.0009-.102.0135-.151s.0383-.094.0705-.134c.0321-.04.0717-.072.1166-.097 3.1356-1.737 5.4525-4.646 6.4414-8.089.9888-3.442.5687-7.1364-1.1681-10.2698-.0357-.0438-.0614-.0949-.0753-.1498-.0138-.0548-.0155-.112-.0048-.1675.0106-.0556.0333-.1081.0665-.1539.0331-.0459.0759-.0839.1253-.1115.0495-.0275.1043-.0439.1608-.048.0564-.0042.1131.0041.166.0242s.1008.0515.1402.0921c.0395.0405.0696.0892.0882.1426l6.7467 12.1466c.0246.044.04.094.0455.144.0055.051.0009.102-.0135.151s-.0383.095-.0705.135c-.0321.039-.0717.072-.1166.097l-12.1596 6.723c-.0562.035-.12.057-.1861.062zm7.3516-15.0121c.3731 2.1351.2557 4.3261-.3435 6.4091s-1.6644 4.002-3.1152 5.613l7.7549-4.291z" fill="#3d3dff"/><path d="m28.0032 103.903c-.0697 0-.1382-.018-.1983-.054-.06-.035-.1094-.086-.1429-.147l-5.2578-9.5439c-.2241-.3904-.3679-.8216-.4229-1.2682-.055-.4467-.02-.8999.1028-1.3328.1228-.433.331-.8372.6124-1.1886.2814-.3515.6302-.6433 1.0261-.8582l5.5059-3.0986c.0439-.0356.0951-.0613.15-.0751.0548-.0138.1121-.0155.1677-.0049.0556.0107.1082.0334.1541.0665.0458.0331.0839.0758.1115.1252s.044.1042.0481.1606c.0042.0564-.0041.113-.0242.1658-.0202.0529-.0516.1007-.0922.1401s-.0893.0694-.1428.088l-5.5059 3.0986c-.6015.3359-1.0453.8962-1.2343 1.5582-.1889.662-.1076 1.3719.2262 1.9741l5.2887 9.5432c.0246.045.0401.094.0456.145s.0009.102-.0135.151-.0384.095-.0705.134c-.0321.04-.0718.073-.1166.097-.056.065-.1327.109-.2172.124z" fill="#3d3dff"/><path d="m165.729 22.566c-.22 2.3205.267 4.6529 1.395 6.6929l8.127-4.4929z" fill="#7891ff"/><path d="m167.125 29.6463h-.109c-.096-.0338-.178-.0993-.232-.1859-1.16-2.1082-1.662-4.5144-1.443-6.9098.016-.1088.071-.208.155-.2789.052-.0226.107-.0343.163-.0343s.112.0117.163.0343l9.507 2.2c.078.016.148.0562.201.1146.053.0585.086.1323.094.2108.015.076.006.1549-.028.2248s-.089.1269-.158.1625l-8.127 4.4929c-.064.0058-.128-.0049-.186-.031zm-1.039-6.5999c-.112 1.9674.3 3.9292 1.194 5.6858l6.902-3.8112z" fill="#3d3dff"/><path d="m172.057 33.9998 3.195-9.2957-5.366 7.7464c.659.6012 1.388 1.1214 2.171 1.5493z" fill="#7891ff"/><path d="m172.057 34.3871c-.056.0159-.115.0159-.171 0-.806-.4289-1.561-.9487-2.249-1.5493-.074-.0607-.122-.1465-.137-.2408-.014-.0944.007-.1907.06-.2705l5.366-7.7463c.056-.0749.135-.1281.226-.1507.09-.0226.186-.0132.27.0267.083.0458.146.1188.18.2066.034.0877.036.1845.006.2737l-3.102 9.2957c-.044.1049-.127.1884-.232.2323zm-1.644-1.8901c.45.352.927.668 1.427.945l2.109-6.0886z" fill="#3d3dff"/><path d="m175.252 24.766-8.127 4.4929c.707 1.2657 1.643 2.3897 2.76 3.3155z" fill="#fff"/><path d="m169.885 32.9617c-.091.002-.18-.0313-.248-.0929-1.162-.9479-2.131-2.1103-2.854-3.4239-.038-.0943-.038-.2001 0-.2944.031-.0984.097-.1815.187-.2324l8.127-4.4774c.064-.0556.147-.0862.232-.0862.086 0 .168.0306.233.0862.057.0671.088.1522.088.2401 0 .088-.031.173-.088.2402l-5.366 7.7464c-.03.0452-.069.0837-.114.113-.046.0294-.097.0489-.15.0574zm-2.217-3.5478c.558.9617 1.259 1.8339 2.078 2.5873l4.187-6.0887z" fill="#3d3dff"/><path d="m40.4415 78.5105c-.0691-.0028-.1364-.0227-.196-.0578-.0595-.0352-.1094-.0845-.1452-.1436l-1.1167-2.045c-.0271-.042-.0451-.0893-.0527-.1387s-.0047-.0998.0084-.148c.0132-.0482.0364-.0932.068-.1318.0317-.0387.0712-.0703.1159-.0928.0432-.0273.0917-.0454.1423-.0532.0506-.0077.1023-.005.1518.0081.0494.0131.0957.0362.1358.068.0402.0317.0733.0714.0974.1165l1.1322 2.0451c.0268.0442.0441.0935.0507.1447.0067.0512.0026.1033-.012.1528-.0146.0496-.0394.0956-.0727.135-.0334.0395-.0746.0716-.1211.0942-.0569.0315-.1211.0475-.1861.0465z" fill="#3d3dff"/><path d="m59.5343 112.966c-.0694-.001-.1373-.02-.1971-.056-.0597-.035-.1094-.085-.1441-.145l-1.1167-2.061c-.0508-.088-.0647-.193-.0386-.292.0261-.098.0902-.183.1782-.234.0912-.046.1964-.055.2942-.027.0978.029.1812.094.2331.182l1.1167 2.014c.0246.044.0401.094.0456.144.0055.051.0009.102-.0135.151s-.0384.095-.0705.134c-.0321.04-.0718.073-.1167.097-.0487.044-.1072.076-.1706.093z" fill="#3d3dff"/><path d="m52.6167 71.7866c-.0675-.0009-.1334-.0202-.1908-.0557-.0573-.0354-.104-.0858-.1349-.1457l-1.1322-2.0451c-.0357-.0438-.0614-.095-.0753-.1498-.0138-.0548-.0154-.112-.0048-.1675.0107-.0556.0333-.1081.0665-.1539.0331-.0459.0759-.0839.1253-.1115.0495-.0275.1043-.0439.1608-.048.0565-.0042.1131.0041.166.0242s.1008.0515.1403.0921c.0394.0405.0695.0892.0881.1426l1.1322 2.0451c.0509.0884.0648.1934.0386.292-.0261.0986-.0901.183-.1782.2347-.0625.0315-.1316.0475-.2016.0465z" fill="#3d3dff"/></svg>