<svg fill="none" height="172" viewBox="0 0 165 172" width="165" xmlns="http://www.w3.org/2000/svg"><path d="m155.669 91.3733-9.591-15.6558c-1.588-2.5791-4.13-4.4264-7.072-5.1395-2.943-.7131-6.049-.2343-8.64 1.3322l-3.289 2.0102 1.34-.8071 1.949-1.2945-1.051-1.7666c-.34-.556-.887-.9546-1.52-1.1087s-1.302-.0512-1.859.2863l-5.451-8.9245c.767-1.409 1.15-2.9954 1.11-4.5994-.04-1.6041-.502-3.1693-1.338-4.5382l-9.607-15.7015c-3.748-6.2377-8.694-11.6709-14.5528-15.9863-5.8584-4.3154-12.5133-7.4274-19.5805-9.1565-7.0671-1.72902-14.4067-2.04086-21.595-.91749-7.1882 1.12339-14.0829 3.65969-20.2861 7.46259s-11.592 8.7971-15.8555 14.6943-7.3171 12.5807-8.98478 19.6647c-1.66764 7.084-1.91621 14.4282-.73138 21.6088 1.18486 7.1806 3.77956 14.0553 7.63456 20.2275l9.5916 15.6562c.8381 1.378 2.0261 2.51 3.4434 3.281 1.4173.77 3.0133 1.151 4.6256 1.105l5.4505 8.878c-.5508.346-.9429.895-1.0912 1.528-.1482.633-.0406 1.299.2995 1.853l1.1266 1.828 3.4408-2.102-3.2885 2.011c-1.2858.787-2.4038 1.821-3.2902 3.041s-1.5238 2.603-1.8758 4.069c-.352 1.467-.4118 2.989-.1759 4.478.236 1.49.7629 2.919 1.5509 4.204l9.5916 15.672c1.5931 2.585 4.1445 4.436 7.0969 5.146 2.9524.711 6.0659.224 8.6606-1.354l3.2885-2.026c2.5453 1.663 5.5096 2.57 8.5493 2.616 3.0396.046 6.03-.772 8.6242-2.357l11.7382-7.203c3.6302-2.233 6.2269-5.816 7.2199-9.961.993-4.146.302-8.516-1.9217-12.153l-14.4026-23.499c-1.101-1.8-2.5463-3.366-4.2531-4.607s-3.6415-2.134-5.6934-2.626c-2.052-.492-4.1809-.5748-6.2648-.243-2.0839.332-4.0819 1.071-5.8797 2.177l-11.7534 7.173c-2.0351 1.242-3.763 2.929-5.0546 4.934l-3.8671-6.305c.7673-1.409 1.1502-2.995 1.1101-4.599s-.5017-3.17-1.3385-4.5387l-9.6067-15.6863c-4.1109-6.7115-5.9589-14.566-5.272-22.4071.687-7.8411 3.8726-15.2543 9.0879-21.1483 5.2153-5.8939 12.1846-9.9571 19.8818-11.5913s15.7156-.753 22.8746 2.5139c.6242.2893 1.2179.5939 1.8269.9137l9.7743 7.4777c1.6846 1.794 3.1841 3.7533 4.476 5.8481l9.592 15.6711c.84 1.3758 2.028 2.5048 3.446 3.2724 1.417.7677 3.012 1.1466 4.623 1.0984l3.867 6.305c-2.374.2476-4.663 1.0229-6.699 2.2692l-11.7384 7.2035c-3.6317 2.2275-6.2312 5.8059-7.2274 9.9492-.9963 4.1433-.3079 8.5127 1.914 12.1485l14.4028 23.499c2.23 3.634 5.809 6.235 9.954 7.231 4.144.997 8.515.308 12.152-1.916l11.738-7.203c2.599-1.583 4.695-3.872 6.043-6.601s1.892-5.785 1.57-8.811l3.288-2.026c2.588-1.596 4.437-4.154 5.139-7.113.702-2.9588.201-6.0755-1.394-8.6647z" fill="#fff"/><path d="m55.8716 171.648c-3.2741.008-6.495-.828-9.3514-2.429s-5.2517-3.912-6.9542-6.709l-9.6068-15.641c-2.0162-3.291-2.9877-7.117-2.7866-10.972s1.5655-7.559 3.9132-10.623c-.1291-.94-.1291-1.893 0-2.833l-1.4158-2.315c-4.115-1.129-7.6437-3.787-9.8656-7.431l-9.6068-15.6563c-4.58568-7.0284-7.71516-14.9056-9.203202-23.1653-1.488045-8.2598-1.304412-16.7342.540032-24.9217 1.84444-8.1875 5.3122-15.9216 10.19797-22.7446 4.8859-6.823 11.0904-12.5961 18.2465-16.97769 7.156-4.38157 15.1181-7.28253 23.4149-8.531146 8.2968-1.248617 16.7597-.819519 24.8878 1.261896 8.1281 2.08141 15.7561 5.77284 22.4324 10.85574 6.677 5.083 12.266 11.4541 16.437 18.7363l9.591 15.6558c2.228 3.6447 2.98 8.003 2.101 12.1836l1.432 2.3148c.897.2937 1.751.7033 2.542 1.2184 3.804-.7118 7.734-.2495 11.269 1.3254s6.508 4.188 8.523 7.4924l9.607 15.6559c2.602 4.28 3.422 9.4103 2.283 14.2885-1.139 4.878-4.145 9.115-8.373 11.799-.401 3.588-1.613 7.038-3.544 10.088s-4.53 5.621-7.6 7.518l-11.723 7.188c-3.59 2.192-7.696 3.392-11.901 3.478s-8.357-.946-12.033-2.991c.153 4.21-.813 8.385-2.801 12.098-1.987 3.714-4.924 6.834-8.5105 9.041l-11.7991 7.173c-3.0764 1.869-6.5362 3.017-10.1197 3.358-3.5836.34-7.1976-.136-10.5706-1.394-2.9239 1.723-6.2591 2.623-9.6525 2.605zm-11.6621-38.074c-.8711.538-1.4933 1.4-1.7302 2.396-.2369.997-.0691 2.046.4666 2.919l9.5915 15.671c.5409.873 1.405 1.495 2.4036 1.732.9985.237 2.0502.069 2.925-.468l3.2886-2.01c1.2266-.753 2.6414-1.142 4.0804-1.123 1.4389.018 2.8431.445 4.0496 1.23 1.3337.885 2.8935 1.368 4.494 1.392 1.6004.025 3.1742-.411 4.5342-1.255l11.7534-7.189c1.8942-1.183 3.2455-3.065 3.7605-5.239.2647-1.08.3108-2.202.1356-3.301-.1751-1.098-.5681-2.151-1.1556-3.095l-14.3417-23.468c-1.1718-1.914-3.0551-3.284-5.2361-3.809-2.181-.526-4.4812-.164-6.3955 1.006l-11.7535 7.204c-1.0665.665-1.9714 1.56-2.6491 2.619-.6153.949-1.4378 1.746-2.4055 2.33 1.0523 1.721 1.3787 3.79.9077 5.752-.471 1.961-1.7009 3.656-3.4197 4.711zm76.2905-55.6787c-.956.6042-2.041.9746-3.166 1.0813-1.248.1236-2.45.5299-3.517 1.1879l-11.754 7.2035c-1.906 1.1746-3.2693 3.0568-3.7914 5.2345-.5222 2.1778-.1606 4.4738 1.0056 6.3855l14.3418 23.514c.58.948 1.341 1.772 2.24 2.425s1.917 1.123 2.998 1.382c1.08.258 2.201.302 3.298.127s2.149-.565 3.095-1.147l11.754-7.188c1.376-.827 2.486-2.031 3.199-3.47.712-1.438.997-3.051.82-4.647-.154-1.434.101-2.882.737-4.176s1.627-2.381 2.856-3.134l3.289-2.011c.873-.535 1.499-1.396 1.739-2.3926.239-.9965.074-2.0475-.46-2.9222l-9.592-15.6711c-.541-.8718-1.404-1.495-2.402-1.7345-.997-.2395-2.049-.0759-2.927.4553l-3.288 2.0255c-1.721 1.0525-3.788 1.3791-5.749.908-1.961-.4712-3.655-1.7015-4.71-3.4209zm-86.1408 27.5957c.2484-.015.4975-.015.746 0 .1113-.286.2383-.566.3806-.838.1336-.231.204-.494.204-.761s-.0704-.53-.204-.762l-9.5916-15.6554c-4.9704-8.0989-7.2097-17.5803-6.3879-27.0479.8218-9.4677 4.6612-18.4212 10.9528-25.5419 6.2915-7.1207 14.7026-12.0322 23.9947-14.0113 9.292-1.979 18.9738-.921 27.6195 3.0183.746.335 1.5224.7158 2.1923 1.0965.3828.1994.7493.4285 1.0962.6853l9.7895 7.4777c.3396.2609.6555.5514.9439.868 2.0216 2.1747 3.8125 4.553 5.3438 7.097l9.607 15.6558c.141.2388.345.4345.589.566.244.1316.519.1939.796.1802.309-.0228.62-.0228.929 0 .113-.2877.245-.5675.396-.8376.124-.2346.189-.496.189-.7614 0-.2655-.065-.5269-.189-.7615l-9.592-15.7168c-4.051-6.6467-9.6758-12.1936-16.3775-16.1511-6.7017-3.9574-14.2743-6.2038-22.0493-6.5407-9.4563-.4085-18.8175 2.032-26.8715 7.0055-6.6402 4.0576-12.1818 9.6853-16.1374 16.388-3.9556 6.7028-6.204 14.2751-6.5474 22.0511-.4084 9.4592 2.0314 18.8233 7.0033 26.8799l9.5916 15.6713c.1423.241.3483.438.5954.57s.5258.192.8053.176zm29.3074-70.3751c-1.4579-.0021-2.9137.11-4.3542.335-6.7968 1.0452-13.0102 4.4466-17.5541 9.6098-1.8546 2.1344-3.3928 4.5245-4.5674 7.0969-2.3466 5.1484-3.1453 10.8684-2.2989 16.463.5807 3.8501 1.9322 7.5433 3.9737 10.8586l9.5915 15.671c1.1002 1.7971 1.8494 3.7868 2.2076 5.8638l8.1452-5.0718c3.5884-2.2027 7.6988-3.4089 11.9081-3.4946 4.2092-.0856 8.3653.9524 12.0403 3.0072-.1596-4.2068.8025-8.3804 2.7877-12.0924s4.922-6.8289 8.509-9.0308l8.2209-5.0409c-1.689-1.2388-3.1256-2.7897-4.232-4.5689l-9.5307-15.6862c-.9206-1.4893-1.9755-2.8912-3.1515-4.1881l-8.7237-6.6705-.8678-.4264c-3.801-1.7304-7.9276-2.6287-12.1037-2.6347z" fill="#fff"/><path d="m130.366 71.9101-14.007 8.5437c-.998.6115-1.866 1.4138-2.554 2.3611-.688.9472-1.183 2.0209-1.456 3.1595-.272 1.1386-.318 2.3198-.134 3.4762.183 1.1563.593 2.2651 1.206 3.2629l12.271 19.9805c.604 1.01 1.402 1.891 2.347 2.591.946.7 2.02 1.206 3.162 1.489 1.142.284 2.329.338 3.492.16 1.163-.177 2.279-.583 3.285-1.194l13.931-8.543c1.289-.789 2.409-1.825 3.296-3.049.887-1.223 1.524-2.61 1.873-4.081.35-1.4703.405-2.9954.163-4.4875-.241-1.492-.776-2.9215-1.572-4.2062l-9.591-15.6558c-1.588-2.5792-4.13-4.4264-7.073-5.1395-2.942-.7131-6.048-.2343-8.639 1.3321z" fill="#c9ffff"/><path d="m133.304 117.385c-1.591.003-3.156-.403-4.545-1.179s-2.555-1.896-3.387-3.253l-12.286-20.0567c-1.283-2.1028-1.682-4.6274-1.112-7.0236.571-2.3962 2.065-4.4699 4.157-5.7691l13.961-8.5285c1.328-.8149 2.803-1.3598 4.342-1.6033 1.539-.2436 3.111-.1811 4.625.1839 1.515.365 2.943 1.0253 4.202 1.9431s2.325 2.0751 3.136 3.4055l9.607 15.6559c1.642 2.6863 2.151 5.9149 1.414 8.9758-.736 3.062-2.658 5.705-5.342 7.35l-13.93 8.529c-1.454.901-3.132 1.376-4.842 1.37zm2.969-46.7998c-2.043.0036-4.046.5729-5.786 1.6448l-13.93 8.4828c-1.926 1.1872-3.303 3.089-3.831 5.2894s-.163 4.5204 1.014 6.4525l12.271 20.0423c1.19 1.923 3.091 3.298 5.29 3.826 2.198.528 4.516.165 6.449-1.009l13.93-8.483c2.497-1.54 4.284-4.005 4.972-6.8582.687-2.8529.219-5.862-1.303-8.371l-9.591-15.6558c-.759-1.2475-1.758-2.3315-2.939-3.1891-1.182-.8576-2.522-1.4715-3.943-1.8062-.85-.2266-1.724-.3493-2.603-.3655z" fill="#3d3dff"/><path d="m94.0397 153.388c3.6328-2.231 6.2323-5.812 7.2283-9.958.997-4.145.308-8.517-1.9149-12.156l-14.4026-23.499c-1.101-1.8-2.5463-3.366-4.2531-4.607s-3.6415-2.134-5.6934-2.626c-2.052-.492-4.1808-.5748-6.2648-.243-2.0839.332-4.0819 1.071-5.8797 2.177l-11.7534 7.173 31.1953 50.912z" fill="#ffceff"/><path d="m82.3018 160.972c-.0664-.001-.1316-.019-.1899-.05-.0584-.032-.1081-.078-.145-.133l-31.1802-50.912c-.0216-.045-.0328-.095-.0328-.145s.0112-.099.0328-.144c.0085-.051.0279-.099.0568-.141s.0667-.077.1107-.103l11.7382-7.188c1.8411-1.131 3.887-1.888 6.0207-2.2278 2.1337-.3396 4.3134-.2552 6.4145.2478 2.1011.504 4.0824 1.417 5.8306 2.687 1.7483 1.27 3.2292 2.872 4.3581 4.714l14.4025 23.499c2.2782 3.723 2.9852 8.198 1.9662 12.441-1.019 4.244-3.6816 7.909-7.4014 10.19l-11.7382 7.204c-.0747.04-.1585.061-.2436.061zm-30.6777-51.171 30.7995 50.257 11.4033-6.99c1.7576-1.078 3.2856-2.492 4.497-4.16 1.2114-1.669 2.0821-3.56 2.5631-5.565.481-2.006.562-4.086.238-6.123-.323-2.037-1.044-3.99-2.1217-5.748l-14.3112-23.499c-2.176-3.546-5.6704-6.084-9.7155-7.054-4.0451-.9713-8.31-.296-11.8579 1.876z" fill="#3d3dff"/><path d="m76.927 121.04 10.1701 16.6z" fill="#fff"/><path d="m87.0972 138.021c-.067.002-.1332-.014-.1921-.046-.0588-.032-.1081-.08-.1429-.137l-10.1701-16.6c-.0512-.085-.0672-.187-.0444-.284.0227-.096.0824-.18.1662-.234.0875-.052.1916-.068.2909-.045.0992.022.1859.082.242.167l10.1701 16.6c.0513.085.0672.187.0445.284-.0228.097-.0825.181-.1663.234-.0579.041-.1272.062-.1979.061z" fill="#3d3dff"/><path d="m89.8684 148.636c-.3524 3.339-1.7413 6.483-3.9719 8.991-2.2305 2.509-5.1905 4.255-8.4643 4.995-3.2738.739-6.6968.434-9.7884-.873-3.0915-1.306-5.6963-3.549-7.4483-6.412l-14.3874-23.56c-1.8187-2.97-2.6247-6.449-2.2969-9.916.3279-3.467 1.7719-6.734 4.115-9.31 2.3431-2.575 5.4587-4.321 8.8784-4.973 3.4198-.653 6.9588-.177 10.0852 1.355" fill="#ffceff"/><path d="m73.9281 163.348c-1.3035.001-2.6023-.157-3.8671-.473-2.1031-.497-4.0864-1.408-5.8348-2.678-1.7485-1.271-3.2272-2.876-4.3505-4.723l-14.4026-23.499c-1.8691-3.043-2.6982-6.612-2.3622-10.168.336-3.555 1.8189-6.905 4.2249-9.544 2.4061-2.639 5.6048-4.424 9.1136-5.085s7.1374-.163 10.3383 1.42c.0888.048.1556.129.1867.225.0312.097.0243.201-.0193.293-.0456.087-.1235.154-.2173.185-.0937.031-.196.025-.2851-.018-3.0527-1.508-6.5127-1.982-9.8583-1.35-3.3456.631-6.3954 2.333-8.6894 4.849-2.294 2.517-3.7079 5.711-4.0285 9.102-.3205 3.39.4696 6.793 2.2513 9.695l14.3873 23.499c1.7183 2.768 4.2549 4.933 7.2582 6.194 3.0033 1.262 6.3244 1.557 9.5032.846 3.1787-.711 6.0575-2.394 8.2373-4.815s3.5526-5.461 3.9282-8.698c.0014-.05.0137-.099.0359-.144.0222-.046.0539-.085.0929-.117s.0844-.055.1331-.068c.0488-.012.0996-.014.1492-.006.0494.004.0976.018.1416.041s.0828.055.1142.093c.0313.038.0545.083.0681.131.0136.047.0173.097.011.147-.445 4.023-2.3546 7.741-5.3646 10.446-3.0101 2.705-6.91 4.207-10.9562 4.22z" fill="#3d3dff"/><path d="m39.8329 126.914 13.8857-8.497c.9969-.608 2.1037-1.013 3.2572-1.193s2.3312-.131 3.4657.144c1.1345.276 2.2037.772 3.1465 1.461s1.7407 1.556 2.3482 2.554l12.2078 19.961c1.2304 2.012 1.6114 4.43 1.0593 6.723s-1.9922 4.272-4.0035 5.503l-13.8727 8.49z" fill="#c9ffff"/><path d="m61.8549 162.738c-.0641-.002-.1267-.02-.1824-.051-.0557-.032-.1028-.077-.1373-.131l-21.6191-35.256c-.0313-.094-.0313-.196 0-.29.0295-.096.0949-.178.1827-.228l13.9306-8.544c2.0988-1.286 4.6216-1.687 7.0157-1.116 2.3942.57 4.4646 2.067 5.7578 4.162l12.2863 20.042c1.2896 2.098 1.6933 4.623 1.1223 7.019s-2.0699 4.468-4.1672 5.758l-13.9306 8.544c-.0761.054-.1658.086-.2588.091zm-21.0862-35.499 21.1927 34.586 13.5957-8.331c1.929-1.184 3.3091-3.086 3.8372-5.288.5281-2.201.161-4.523-1.0207-6.454l-12.2558-20.042c-1.1841-1.929-3.0854-3.31-5.2863-3.838s-4.5215-.161-6.4519 1.021z" fill="#3d3dff"/><path d="m35.8071 102.898-3.3621 2.061c-1.2332.756-1.6202 2.368-.8646 3.602l9.2595 15.115c.7557 1.233 2.3679 1.62 3.601.864l3.3621-2.061c1.2331-.755 1.6202-2.368.8645-3.602l-9.2594-15.114c-.7557-1.234-2.3679-1.621-3.601-.865z" fill="#ffff58"/><path d="m43.0681 125.304c-.5071-.009-1.0039-.145-1.4453-.395-.4413-.25-.8133-.606-1.082-1.036l-9.2871-15.108c-.4133-.679-.5445-1.494-.3654-2.269.188-.778.6748-1.451 1.355-1.873l3.3647-2.056c.6813-.404 1.4933-.527 2.2637-.342.7703.184 1.4383.662 1.8622 1.332l9.2566 15.107c.4089.683.5342 1.499.3493 2.273-.185.775-.6656 1.446-1.3389 1.87l-3.3647 2.071c-.4744.282-1.0164.429-1.5681.426zm-7.0947-22.082-3.3647 2.056c-.503.313-.8636.81-1.0048 1.386-.0695.288-.0811.587-.0341.88.0471.293.1518.573.3081.825l9.2414 15.093c.3114.495.8032.85 1.3715.989.5682.14 1.1684.052 1.6735-.243l3.3494-2.056c.5015-.306.8614-.798 1.0012-1.369s.048-1.174-.2552-1.677l-9.2414-15.138c-.306-.502-.798-.862-1.3685-1.002-.5706-.139-1.1733-.048-1.6764.256z" fill="#3d3dff"/><path d="m116.329 53.53-7.828 4.7982 11.996 19.5817 7.828-4.7982z" fill="#ffff58"/><path d="m120.5 78.2912c-.064-.0009-.128-.0181-.183-.0501-.056-.032-.103-.0776-.137-.1326l-11.997-19.5851c-.051-.0851-.067-.1869-.044-.2837.022-.0967.082-.1807.166-.2341l7.841-4.7972c.081-.0543.18-.0751.277-.0581.096.017.182.0706.24.1495l11.997 19.585c.032.0939.032.1954 0 .2893-.028.0931-.087.1737-.167.2285l-7.841 4.7973c-.04.0449-.093.0767-.152.0913zm-11.449-19.8439 11.601 18.9302 7.171-4.4013-11.616-18.9302z" fill="#3d3dff"/><path d="m41.9562 99.1251-9.6067-15.6711c-4.632-7.4935-6.4184-16.4023-5.0338-25.103 1.3845-8.7008 5.8479-16.6144 12.5768-22.299 6.729-5.6846 15.2756-8.7617 24.0827-8.6708 8.8071.091 17.2884 3.3439 23.8987 9.1662 2.7923 2.4373 5.1952 5.2877 7.1251 8.4524l9.592 15.671c.63 1.029 1.458 1.9236 2.434 2.6328s2.083 1.2191 3.256 1.5005c1.174.2814 2.391.3289 3.583.1397s2.334-.6113 3.363-1.2423 1.923-1.4585 2.632-2.4352 1.219-2.0836 1.5-3.2574c.281-1.1737.329-2.3914.14-3.5835-.189-1.1922-.611-2.3354-1.242-3.3643l-9.607-15.5949c-3.748-6.2377-8.694-11.6709-14.5528-15.9863-5.8584-4.3154-12.5133-7.4274-19.5805-9.1565-7.0671-1.72902-14.4067-2.04086-21.595-.91749-7.1882 1.12339-14.0829 3.65969-20.2861 7.46259s-11.592 8.7971-15.8555 14.6943-7.3171 12.5807-8.98478 19.6647c-1.66764 7.084-1.91621 14.4282-.73138 21.6088 1.18486 7.1806 3.77956 14.0553 7.63456 20.2275l9.5915 15.6562c1.272 2.078 3.3171 3.565 5.6854 4.135 2.3684.57 4.866.175 6.9435-1.097s3.5646-3.318 4.1342-5.687.1751-4.868-1.0969-6.9459z" fill="#44e8ff"/><g fill="#3d3dff"><path d="m34.1306 113.486c-1.6381.005-3.2495-.414-4.6789-1.214s-2.6285-1.956-3.4815-3.354l-9.6068-15.6562c-2.9181-4.7743-5.1043-9.9591-6.48571-15.3817-2.78843-11.0269-2.12331-22.6445 1.90541-33.2809 4.0287-10.6364 11.2264-19.7781 20.6194-26.1883 9.393-6.4101 20.5278-9.77925 31.8977-9.65154 11.37.12771 22.4263 3.74614 31.673 10.36564 6.0398 4.3141 11.1468 9.8052 15.0118 16.1432l9.591 15.6558c1.324 2.1638 1.735 4.7642 1.144 7.2309s-2.135 4.5984-4.295 5.9273c-2.165 1.3224-4.766 1.7315-7.232 1.1376s-4.596-2.1422-5.922-4.3053l-9.5919-15.671c-1.9159-3.1303-4.2922-5.954-7.049-8.3762-6.5422-5.7412-14.9262-8.9444-23.6287-9.0276-8.7025-.0833-17.1462 2.959-23.797 8.574-6.6507 5.615-11.0673 13.4301-12.4472 22.0256-1.3799 8.5956.3683 17.4011 4.927 24.8168l9.5916 15.732c1.3233 2.1639 1.7346 4.7639 1.1438 7.2309s-2.1355 4.598-4.2953 5.927c-1.5109.895-3.238 1.359-4.9937 1.34zm29.5054-103.97076c-9.7305.00125-19.2848 2.59816-27.6779 7.52296s-15.3216 11.9994-20.0712 20.4947c-4.7497 8.4952-7.14874 18.1038-6.94991 27.8353.19884 9.7316 2.98841 19.2341 8.08111 27.5281l9.5915 15.6557c.5643 1.056 1.338 1.986 2.2737 2.732.9358.746 2.0139 1.294 3.1685 1.61 1.1546.315 2.3613.391 3.5465.224 1.1851-.167 2.3237-.574 3.3462-1.196 1.0224-.623 1.9072-1.447 2.6002-2.423s1.1796-2.084 1.4302-3.254c.2505-1.171.2597-2.381.0269-3.555-.2327-1.174-.7026-2.289-1.3807-3.2755l-9.5915-15.6711c-2.6032-4.2196-4.3229-8.9241-5.0546-13.8283-1.1222-7.2343-.077-14.639 3.0038-21.2795 3.0809-6.6406 8.0592-12.2195 14.3066-16.0326 4.1548-2.5589 8.7739-4.2719 13.5922-5.0407 4.8182-.7687 9.7408-.5781 14.4853.561 4.7444 1.139 9.2173 3.2041 13.1618 6.0767 3.9446 2.8726 7.2832 6.4962 9.8243 10.6627l9.607 15.6711c.556 1.0701 1.326 2.0145 2.262 2.7745.937.7601 2.019 1.3195 3.18 1.6437 1.162.3242 2.377.4062 3.572.2409 1.194-.1654 2.342-.5744 3.371-1.2019 1.03-.6274 1.92-1.4599 2.615-2.4456.694-.9858 1.179-2.1039 1.424-3.2849s.244-2.3997-.001-3.5805c-.246-1.1809-.731-2.2986-1.427-3.2839l-9.591-15.6558c-3.813-6.2644-8.858-11.6891-14.8293-15.9452-8.6281-6.1903-18.8679-9.7405-29.475-10.21894-.8069-.04569-1.6138-.06092-2.4207-.06092z"/><path d="m101.987 48.3959c-1.903-3.0459-2.9076-4.7211-3.3948-5.5435-1.9159-3.1303-4.2923-5.954-7.049-8.3762-5.3623-4.6711-11.9814-7.6586-19.0309-8.5894l.1066-.7614c3.6118.4979 7.1307 1.5242 10.4441 3.0459 6.4804 2.9465 11.9691 7.707 15.8032 13.7064l.4263.7006c.5786.8528 1.5225 2.4824 3.4255 5.513z"/><path d="m112.37 62.1938h-.152c-1.667-.7997-3.068-2.0635-4.035-3.6398l-1.659-2.7109c-.028-.0415-.046-.0883-.055-.1373-.009-.0491-.007-.0994.004-.1479.011-.0484.033-.0941.062-.1341.03-.04.067-.0735.111-.0985.087-.0521.191-.0685.29-.0458.1.0227.186.0827.242.1677l1.66 2.7108c.878 1.4518 2.165 2.612 3.699 3.3353.047.0212.089.0516.124.0894.034.0378.061.0822.078.1305.017.0484.024.0997.021.1509s-.017.1011-.04.147c-.035.0608-.086.1103-.148.1427s-.132.0463-.202.04z"/></g><path d="m12.4814 61.7977c-.0016 2.3266.1407 4.651.4263 6.9599z" fill="#fff"/><path d="m12.9078 69.1384c-.0917-.0052-.1791-.0411-.2481-.1018s-.1156-.1429-.1325-.2332c-.2865-2.3242-.4289-4.6638-.4263-7.0056 0-.1009.0401-.1978.1115-.2692s.1682-.1115.2691-.1115c.101 0 .1978.0401.2692.1115s.1115.1683.1115.2692c-.0031 2.3064.1392 4.6106.4262 6.899.0087.0503.0067.102-.0059.1515-.0125.0495-.0353.0959-.0669.1361-.0315.0402-.0712.0733-.1163.0972-.0452.0239-.0948.0381-.1458.0416z" fill="#3d3dff"/><path d="m16.531 82.6012c1.1393 2.7917 2.5039 5.4861 4.0802 8.0564l9.5915 15.6714c.1066.167.2132.335.335.502" fill="#fff"/><path d="m30.5378 107.212c-.0627-.001-.1245-.016-.1801-.045-.0555-.029-.1034-.071-.1396-.123-.1066-.167-.2284-.335-.335-.517l-9.5915-15.6714c-1.5867-2.5905-2.9614-5.3051-4.1107-8.1173-.0351-.093-.0324-.196.0074-.2871s.1137-.1629.2058-.2003c.0911-.036.1925-.0355.2832.0013.0908.0369.1638.1074.204.1967 1.1351 2.7736 2.4893 5.4523 4.0497 8.0107l9.6068 15.6714c.0926.163.1942.32.3045.472.0313.04.0539.086.0663.135.0125.05.0145.101.0059.151-.0086.051-.0276.098-.0558.141-.0281.042-.0649.078-.1078.106-.0612.047-.1358.074-.2131.076z" fill="#3d3dff"/><path d="m67.1225 154.697c-.4297 2.28-1.5394 4.376-3.1832 6.012-1.6437 1.636-3.7444 2.736-6.0253 3.155s-4.6351.137-6.7526-.809-3.899-2.511-5.1099-4.489l-9.5915-15.671c-1.3319-2.152-1.9158-4.684-1.6608-7.203.255-2.518 1.3346-4.881 3.0709-6.722s4.0321-3.057 6.5303-3.458c2.4983-.401 5.0591.034 7.2843 1.239" fill="#c9ffff"/><path d="m55.8561 164.475c-.9388.001-1.8744-.112-2.7861-.336-1.5155-.357-2.9447-1.012-4.2046-1.927-1.2598-.915-2.3251-2.072-3.1337-3.403l-9.6068-15.656c-1.3958-2.219-2.0173-4.838-1.7673-7.448.2499-2.61 1.3572-5.064 3.1487-6.978 1.7916-1.914 4.1665-3.18 6.7537-3.601s5.2408.028 7.5463 1.275c.0456.022.0861.054.1189.093.0327.038.057.084.0714.132.0143.049.0183.1.0118.151-.0066.05-.0235.098-.0498.142-.0511.086-.1328.15-.2289.178-.096.028-.1992.019-.2888-.026-2.1518-1.145-4.6206-1.549-7.0252-1.151s-4.6112 1.577-6.2792 3.355-2.7047 4.055-2.9499 6.481c-.2453 2.426.3145 4.865 1.593 6.94l9.5915 15.687c1.1703 1.912 2.892 3.425 4.9384 4.339 2.0464.915 4.3216 1.188 6.5263.784 2.2047-.403 4.2355-1.465 5.8252-3.046 1.5896-1.581 2.6637-3.606 3.0807-5.808.0185-.099.0753-.187.158-.244.0828-.057.1847-.079.2835-.061.0499.007.0977.025.1405.051.0428.027.0797.062.1083.103.0286.042.0483.089.0579.138.0096.05.0088.1-.0022.15-.5072 2.717-1.9469 5.171-4.0705 6.94-2.1237 1.768-4.7979 2.739-7.5611 2.746z" fill="#3d3dff"/><path d="m62.7838 154.697-.7307-.213c.2609-.872.336-1.788.2207-2.691-.1154-.902-.4188-1.77-.8906-2.548l-8.9674-14.742.6395-.396 8.9825 14.651c.5391.88.8844 1.865 1.0131 2.889.1286 1.024.0376 2.064-.2671 3.05z" fill="#3d3dff"/><path d="m39.7999 121.993 7.7887-4.774c.5543-.34 1.2208-.446 1.8529-.294.6322.152 1.1781.549 1.5178 1.103l1.1137 1.818-11.9687 7.337-1.1137-1.818c-.3396-.554-.4452-1.221-.2934-1.853.1517-.633.5484-1.179 1.1027-1.519z" fill="#00ffac"/><path d="m39.9771 127.711-1.3093-2.148c-.3887-.643-.5075-1.413-.3307-2.143.1768-.731.6349-1.362 1.2746-1.755l7.8255-4.798c.6409-.39 1.4099-.511 2.1398-.337.7298.174 1.3615.629 1.7577 1.266l1.3854 2.148zm8.9369-10.448c-.3836.001-.7589.112-1.081.32l-7.8255 4.797c-.235.139-.4397.324-.602.544s-.2789.47-.3428.735c-.0638.266-.0738.542-.0292.811.0446.27.1429.528.2889.758l.9135 1.523 11.3728-6.96-.9134-1.523c-.1409-.236-.3282-.442-.5506-.604s-.4753-.278-.7435-.34c-.1601-.036-.3232-.056-.4872-.061z" fill="#3d3dff"/><path d="m118.104 73.9943 7.788-4.7744c.555-.3398 1.221-.4454 1.853-.2936.633.1518 1.178.5486 1.518 1.103l1.114 1.818-11.969 7.3366-1.113-1.8179c-.34-.5545-.446-1.2212-.294-1.8535s.548-1.1785 1.103-1.5182z" fill="#00ffac"/><path d="m118.278 79.7229-1.309-2.1474c-.191-.3197-.317-.6743-.369-1.043s-.03-.7441.064-1.1043c.082-.366.237-.7115.457-1.0152.22-.3038.5-.5595.822-.7514l7.856-4.7973c.643-.3887 1.413-.5076 2.143-.3308.73.1769 1.361.6352 1.754 1.275l1.325 2.1474zm8.937-10.5083c-.382-.0033-.757.1024-1.081.3046l-7.826 4.7972c-.469.2876-.807.7464-.944 1.2793-.105.5222-.013 1.065.259 1.523l.914 1.5229 11.372-6.9751-.913-1.5229c-.195-.2923-.46-.5308-.771-.6932-.312-.1624-.659-.2435-1.01-.2358z" fill="#3d3dff"/><path d="m76.1809 137.777c-.0651.001-.1294-.014-.1876-.043-.0583-.029-.1088-.072-.1473-.124l-7.2013-11.757c-.0499-.087-.0636-.19-.0379-.287.0256-.097.0885-.18.1749-.231.0416-.027.0883-.046.1373-.055.0491-.009.0994-.007.1478.004.0485.012.0941.033.1341.062.04.03.0735.068.0985.111l7.2012 11.742c.0486.088.063.191.0405.289-.0224.099-.0802.185-.1623.244z" fill="#3d3dff"/><path d="m72.2537 140.184c-.0644-.001-.1275-.018-.1834-.05-.056-.032-.1029-.078-.1363-.133l-7.2013-11.742c-.0486-.088-.063-.191-.0405-.29.0224-.098.0802-.185.1623-.243.0892-.051.1947-.065.2941-.039.0994.025.185.089.2387.176l7.2013 11.742c.0515.078.0721.173.0581.266-.0141.093-.0618.177-.1342.237-.0344.031-.0756.055-.1205.068s-.0922.016-.1383.008z" fill="#3d3dff"/><path d="m141.024 124.589c3.633-2.23 6.232-5.813 7.226-9.96.993-4.146.3-8.518-1.928-12.153l-14.433-23.4994c-2.23-3.6346-5.811-6.2346-9.956-7.2285-4.146-.9938-8.516-.3001-12.15 1.9286l-11.693 7.2035 31.195 50.9118z" fill="#ffceff"/><path d="m129.285 132.173c-.067-.001-.132-.018-.19-.05-.059-.032-.108-.078-.145-.133l-31.1803-50.9117c-.0216-.0452-.0329-.0946-.0329-.1447s.0113-.0995.0329-.1447c.0084-.0503.0278-.0982.0568-.1403.0289-.0421.0667-.0774.1107-.1033l11.7378-7.1883c1.841-1.131 3.887-1.8879 6.021-2.2275s4.313-.2552 6.415.2483c2.101.5035 4.082 1.4163 5.83 2.6862s3.229 2.8719 4.358 4.7147l14.357 23.4993c2.264 3.72 2.964 8.187 1.945 12.422-1.018 4.235-3.672 7.895-7.38 10.178l-11.738 7.204c-.059.044-.126.075-.198.091zm-30.678-51.1709 30.8 50.2569 11.418-6.99c3.543-2.182 6.078-5.681 7.048-9.728.97-4.048.297-8.315-1.872-11.867l-14.387-23.4842c-2.182-3.5443-5.679-6.0793-9.725-7.0499-4.046-.9705-8.312-.2974-11.863 1.8719z" fill="#3d3dff"/><path d="m123.896 92.2415 10.17 16.6005z" fill="#fff"/><path d="m134.066 109.222c-.065-.001-.128-.018-.184-.05-.055-.032-.102-.078-.136-.133l-10.17-16.5997c-.051-.0851-.067-.1869-.044-.2837.022-.0967.082-.1807.166-.2341.087-.0521.191-.0685.291-.0458.099.0227.186.0827.242.1677l10.17 16.5996c.05.087.063.191.038.288-.026.096-.089.179-.175.23-.057.043-.127.065-.198.061z" fill="#3d3dff"/><path d="m136.852 119.837c-.363 3.334-1.76 6.471-3.994 8.971-2.235 2.5-5.196 4.238-8.468 4.97-3.271.732-6.69.422-9.777-.887-3.086-1.31-5.686-3.552-7.434-6.414l-14.4027-23.499c-1.8282-2.974-2.6389-6.4632-2.3098-9.9393.3291-3.476 1.7803-6.7506 4.1342-9.3288s5.4823-4.3201 8.9133-4.9625c3.431-.6423 6.978-.1503 10.105 1.4018" fill="#ffceff"/><path d="m120.911 134.549c-1.306-.018-2.605-.198-3.867-.533-2.104-.496-4.088-1.405-5.837-2.676s-3.227-2.877-4.348-4.726l-14.403-23.438c-1.8691-3.043-2.6982-6.6116-2.3622-10.1674.336-3.5557 1.8189-6.9058 4.2249-9.5447 2.4061-2.6388 5.6048-4.4234 9.1133-5.0846 3.509-.6611 7.138-.1628 10.339 1.4197.046.0212.088.0516.123.0894.034.0378.061.0822.078.1306.017.0483.024.0996.021.1508s-.017.1012-.04.147c-.048.0888-.129.1556-.225.1868-.096.0311-.201.0242-.292-.0193-3.053-1.5078-6.513-1.9818-9.859-1.3506-3.345.6311-6.3951 2.3333-8.6891 4.8498-2.294 2.5164-3.7079 5.7107-4.0285 9.1013-.3205 3.3905.4696 6.7933 2.2513 9.6952l14.4173 23.499c1.719 2.768 4.255 4.933 7.259 6.194 3.003 1.262 6.324 1.557 9.503.846s6.057-2.394 8.237-4.815 3.553-5.461 3.928-8.697c.004-.051.018-.101.042-.146s.057-.085.097-.117c.04-.031.087-.054.136-.066.05-.013.101-.015.152-.006.049.003.097.017.141.04s.083.055.114.093c.032.039.055.083.069.131.013.048.017.098.011.147-.445 4.023-2.355 7.741-5.365 10.446s-6.91 4.207-10.956 4.22z" fill="#3d3dff"/><path d="m39.9317 137.686c1.2697 0 2.299-1.03 2.299-2.3s-1.0293-2.299-2.299-2.299c-1.2696 0-2.2989 1.029-2.2989 2.299s1.0293 2.3 2.2989 2.3z" fill="#fff"/><path d="m39.9319 138.067c-.2075.022-.4167.022-.6242 0-.343-.08-.6665-.227-.9515-.434-.2851-.206-.5258-.468-.708-.769-.2311-.376-.3659-.803-.3925-1.243-.0266-.441.0558-.881.2399-1.281.1842-.401.4644-.75.8157-1.017.3514-.266.7631-.442 1.1986-.511s.8813-.03 1.298.114c.4166.145.7912.39 1.0904.714.2993.324.514.717.6251 1.144.1111.426.1152.874.0119 1.303-.0812.34-.2295.661-.436.943-.2065.283-.4671.521-.7667.702-.4258.242-.9115.358-1.4007.335zm0-4.569c-.3533.001-.7001.095-1.0048.274-.2151.131-.402.303-.55.507-.1479.204-.254.435-.3121.68-.058.245-.0669.499-.0261.748.0408.248.1305.486.264.7.1274.215.2968.403.4981.553.2014.149.4306.256.6741.315.2561.066.523.08.7846.041s.5126-.131.7379-.27c.4275-.27.7333-.696.8526-1.188.073-.255.0904-.523.051-.786s-.1347-.514-.2794-.737c-.181-.28-.4323-.507-.7289-.66-.2966-.152-.628-.224-.961-.208z" fill="#3d3dff"/><path d="m151.848 100.922c.413-1.3503.542-2.7719.377-4.1746-.166-1.4026-.62-2.7556-1.336-3.973" fill="#ff8c9c"/><path d="m152.213 101.029-.731-.229c.399-1.2966.523-2.6621.366-4.0096-.158-1.3476-.593-2.6477-1.279-3.818l.655-.396c.736 1.2654 1.204 2.6689 1.374 4.1231s.039 2.9279-.385 4.3295z" fill="#3d3dff"/><path d="m113.741 119.609 1.263 2.071c.473.771 1.093 1.442 1.824 1.974.732.531 1.562.913 2.441 1.124.88.211 1.792.246 2.685.104s1.75-.459 2.52-.933c.673-.395 1.266-.912 1.751-1.523-1.393.298-2.844.156-4.153-.406s-2.411-1.516-3.155-2.731l-14.433-23.5144c-.743-1.2113-1.093-2.6235-1-4.042.093-1.4184.623-2.7731 1.518-3.8773-.766.1531-1.498.4419-2.162.8529-.771.4726-1.442 1.0926-1.973 1.8246-.532.732-.9135 1.5616-1.1242 2.4414s-.246 1.7924-.1038 2.6858c.1422.8935.459 1.7501.932 2.5209l3.913 6.3961" fill="#ffceff"/><path d="m120.896 125.35c-1.251 0-2.48-.324-3.569-.941-1.088-.616-1.999-1.504-2.643-2.577l-1.263-2.071c-.036-.084-.04-.177-.012-.264.027-.086.085-.16.162-.208.077-.047.169-.066.259-.052.089.014.171.059.23.128l1.279 2.071c.442.732 1.024 1.369 1.713 1.875s1.471.872 2.301 1.076c.83.203 1.692.241 2.537.111.844-.13 1.655-.425 2.386-.869.336-.202.652-.437.944-.7-1.315.086-2.628-.191-3.796-.8-1.168-.61-2.146-1.529-2.827-2.657l-14.387-23.5298c-.676-1.1299-1.033-2.422-1.033-3.7389 0-1.3168.357-2.6089 1.033-3.7388-.362.148-.713.321-1.051.5178-1.47.904-2.522 2.3545-2.924 4.0334-.4029 1.6788-.123 3.4488.778 4.9215l3.912 6.3968c.028.041.046.088.055.137s.008.099-.004.148c-.011.048-.032.094-.062.134s-.067.073-.11.098c-.042.028-.089.047-.138.055-.049.009-.099.008-.148-.004-.048-.011-.094-.032-.134-.062s-.073-.067-.098-.11l-3.928-6.3968c-1.0136-1.6369-1.3375-3.6088-.9009-5.484.4366-1.8753 1.5979-3.5011 3.2299-4.5217.706-.4287 1.478-.7374 2.284-.9138.079-.0149.161-.0054.234.0273.073.0326.135.0869.177.1554.045.0622.069.1368.069.2133s-.024.151-.069.2132c-.846 1.0446-1.348 2.3254-1.438 3.6668-.09 1.3413.237 2.6778.936 3.826l14.372 23.5603c.692 1.16 1.728 2.076 2.963 2.622 1.236.545 2.61.693 3.934.424.075-.023.155-.019.228.011.072.031.131.086.167.156.044.065.068.142.068.221s-.024.155-.068.221c-.526.64-1.153 1.191-1.857 1.629-1.149.671-2.461 1.014-3.791.99z" fill="#3d3dff"/><path d="m126.757 114.476-14.402-23.4986c-.744-1.2141-1.847-2.1666-3.157-2.726-1.309-.5593-2.76-.6977-4.151-.3961-.895 1.1042-1.425 2.4589-1.518 3.8773s.257 2.8307 1 4.042l14.388 23.4994c.743 1.215 1.846 2.169 3.155 2.731s2.76.704 4.153.406c.896-1.106 1.428-2.462 1.524-3.883.095-1.42-.251-2.836-.992-4.052z" fill="#7892ff"/><path d="m124.794 122.944c-1.244.002-2.467-.317-3.553-.925-1.085-.608-1.995-1.485-2.643-2.547l-14.388-23.5299c-.786-1.2813-1.156-2.7751-1.058-4.2753.099-1.5003.66-2.9331 1.606-4.1009l.092-.1066h.121c1.471-.3119 3.001-.1619 4.383.4297s2.547 1.5957 3.336 2.8751l14.388 23.4529c.782 1.283 1.149 2.776 1.051 4.275s-.657 2.932-1.599 4.102l-.092.106h-.137c-.492.134-.997.216-1.507.244zm-19.533-34.7537c-.805 1.0463-1.275 2.3114-1.348 3.6295-.074 1.3181.253 2.6276.937 3.7568l14.402 23.4994c.678 1.141 1.69 2.045 2.899 2.59 1.21.545 2.558.704 3.861.455.811-1.043 1.284-2.309 1.358-3.628.073-1.32-.257-2.631-.947-3.758l-14.326-23.5597c-.701-1.1345-1.73-2.0282-2.952-2.5616-1.221-.5334-2.577-.6811-3.884-.4234z" fill="#3d3dff"/><path d="m17.8405 48.868c1.2697 0 2.2989-1.0296 2.2989-2.2997 0-1.27-1.0292-2.2996-2.2989-2.2996-1.2696 0-2.2989 1.0296-2.2989 2.2996 0 1.2701 1.0293 2.2997 2.2989 2.2997z" fill="#fff"/><path d="m17.8405 49.2487c-.3792.0014-.7544-.0778-1.1008-.2322-.3464-.1545-.6561-.3808-.9086-.6638-.2524-.2831-.4419-.6166-.556-.9784-.114-.3618-.15-.7437-.1055-1.1205.0445-.3767.1685-.7398.3637-1.065.1952-.3253.4572-.6054.7686-.8218.3115-.2165.6654-.3643 1.0382-.4338.3728-.0694.7562-.0589 1.1246.0309.3434.0821.6671.2314.9526.4391s.5272.4698.7111.7713c.1839.3014.3065.6362.3606.9852.0542.349.0389.7052-.045 1.0482-.0796.345-.2286.6702-.438.9556-.2095.2854-.4749.5251-.78.7044-.416.2568-.8968.3889-1.3855.3808zm0-4.5688c-.3508-.0006-.6943.0998-.9896.2893-.432.2646-.7413.69-.8598 1.1827-.1185.4926-.0365 1.0122.228 1.4444s.6898.7416 1.1823.8601 1.0119.0365 1.444-.2281c.2157-.1274.4036-.2969.5527-.4983.1491-.2015.2562-.4308.3151-.6744.0694-.2832.0734-.5786.0115-.8637-.0618-.285-.1877-.5522-.3683-.7813-.1805-.229-.4109-.4139-.6735-.5405-.2627-.1266-.5508-.1917-.8424-.1902z" fill="#3d3dff"/></svg>